<svg width="42" height="40" viewBox="0 0 42 40" fill="none" xmlns="http://www.w3.org/2000/svg">
<g id="icon">
<g id="Union">
<path d="M21.4316 2.54676C21.1862 2.32594 20.8138 2.32594 20.5684 2.54676L2.50389 18.8048C2.36795 18.9272 2.29032 19.1015 2.29032 19.2844V38.7097C2.29032 39.066 2.00147 39.3549 1.64516 39.3549C1.28885 39.3549 1 39.066 1 38.7097V19.2844C1 18.7357 1.23288 18.2128 1.64071 17.8457L19.7052 1.58767C20.4413 0.925204 21.5587 0.925203 22.2948 1.58767L40.3593 17.8457C40.7671 18.2128 41 18.7357 41 19.2844V38.7097C41 39.066 40.7112 39.3549 40.3548 39.3549C39.9985 39.3549 39.7097 39.066 39.7097 38.7097V19.2844C39.7097 19.1015 39.632 18.9272 39.4961 18.8048L21.4316 2.54676Z" fill="#9E2424"/>
<path fill-rule="evenodd" clip-rule="evenodd" d="M10.0323 24.5162C10.0323 23.4472 10.8988 22.5807 11.9677 22.5807H30.0323C31.1012 22.5807 31.9677 23.4472 31.9677 24.5162V37.4194C31.9677 38.4883 31.1012 39.3549 30.0323 39.3549H11.9677C10.8988 39.3549 10.0323 38.4883 10.0323 37.4194V24.5162ZM11.9677 23.871C11.6114 23.871 11.3226 24.1598 11.3226 24.5162V27.742H30.6774V24.5162C30.6774 24.1598 30.3886 23.871 30.0323 23.871H11.9677ZM30.6774 29.0323H11.3226V32.9033H30.6774V29.0323ZM30.6774 34.1936H11.3226V37.4194C11.3226 37.7757 11.6114 38.0645 11.9677 38.0645H30.0323C30.3886 38.0645 30.6774 37.7757 30.6774 37.4194V34.1936Z" fill="#9E2424"/>
<path d="M21.4316 2.54676C21.1862 2.32594 20.8138 2.32594 20.5684 2.54676L2.50389 18.8048C2.36795 18.9272 2.29032 19.1015 2.29032 19.2844V38.7097C2.29032 39.066 2.00147 39.3549 1.64516 39.3549C1.28885 39.3549 1 39.066 1 38.7097V19.2844C1 18.7357 1.23288 18.2128 1.64071 17.8457L19.7052 1.58767C20.4413 0.925204 21.5587 0.925203 22.2948 1.58767L40.3593 17.8457C40.7671 18.2128 41 18.7357 41 19.2844V38.7097C41 39.066 40.7112 39.3549 40.3548 39.3549C39.9985 39.3549 39.7097 39.066 39.7097 38.7097V19.2844C39.7097 19.1015 39.632 18.9272 39.4961 18.8048L21.4316 2.54676Z" stroke="#9E2424"/>
<path fill-rule="evenodd" clip-rule="evenodd" d="M10.0323 24.5162C10.0323 23.4472 10.8988 22.5807 11.9677 22.5807H30.0323C31.1012 22.5807 31.9677 23.4472 31.9677 24.5162V37.4194C31.9677 38.4883 31.1012 39.3549 30.0323 39.3549H11.9677C10.8988 39.3549 10.0323 38.4883 10.0323 37.4194V24.5162ZM11.9677 23.871C11.6114 23.871 11.3226 24.1598 11.3226 24.5162V27.742H30.6774V24.5162C30.6774 24.1598 30.3886 23.871 30.0323 23.871H11.9677ZM30.6774 29.0323H11.3226V32.9033H30.6774V29.0323ZM30.6774 34.1936H11.3226V37.4194C11.3226 37.7757 11.6114 38.0645 11.9677 38.0645H30.0323C30.3886 38.0645 30.6774 37.7757 30.6774 37.4194V34.1936Z" stroke="#9E2424"/>
</g>
</g>
</svg>
