<svg width="42" height="42" viewBox="0 0 42 42" fill="none" xmlns="http://www.w3.org/2000/svg">
<g id="icon">
<g id="Union">
<path d="M3.33333 19.9997C3.33333 11.5313 10.1983 4.66634 18.6667 4.66634C27.135 4.66634 34 11.5313 34 19.9997C34 20.3679 34.2985 20.6663 34.6667 20.6663C35.0349 20.6663 35.3333 20.3679 35.3333 19.9997C35.3333 10.7949 27.8714 3.33301 18.6667 3.33301C9.46192 3.33301 2 10.7949 2 19.9997C2 29.2044 9.46192 36.6663 18.6667 36.6663C19.0349 36.6663 19.3333 36.3679 19.3333 35.9997C19.3333 35.6315 19.0349 35.333 18.6667 35.333C10.1983 35.333 3.33333 28.468 3.33333 19.9997Z" fill="#9E2424"/>
<path d="M19.3333 10.6663C19.3333 10.2982 19.0349 9.99967 18.6667 9.99967C18.2985 9.99967 18 10.2982 18 10.6663V19.333H7.33333C6.96514 19.333 6.66667 19.6315 6.66667 19.9997C6.66667 20.3679 6.96514 20.6663 7.33333 20.6663H18.6667C19.0349 20.6663 19.3333 20.3679 19.3333 19.9997V10.6663Z" fill="#9E2424"/>
<path fill-rule="evenodd" clip-rule="evenodd" d="M22.2068 27.9892C23.0414 27.5719 24.1477 27.333 25.3333 27.333C26.519 27.333 27.6253 27.5719 28.4599 27.9892C29.2546 28.3865 30 29.0588 30 29.9997C30 30.9405 29.2546 31.6128 28.4599 32.0102C27.6253 32.4275 26.519 32.6663 25.3333 32.6663C24.1477 32.6663 23.0414 32.4275 22.2068 32.0102C21.412 31.6128 20.6667 30.9405 20.6667 29.9997C20.6667 29.0588 21.412 28.3865 22.2068 27.9892ZM22.803 29.1817C22.1501 29.5082 22 29.8359 22 29.9997C22 30.1634 22.1501 30.4911 22.803 30.8176C23.4162 31.1242 24.3098 31.333 25.3333 31.333C26.3568 31.333 27.2505 31.1242 27.8636 30.8176C28.5166 30.4911 28.6667 30.1634 28.6667 29.9997C28.6667 29.8359 28.5166 29.5082 27.8636 29.1817C27.2505 28.8752 26.3568 28.6663 25.3333 28.6663C24.3098 28.6663 23.4162 28.8752 22.803 29.1817Z" fill="#9E2424"/>
<path d="M21.3333 33.333C21.7015 33.333 22 33.6315 22 33.9997C22 34.1634 22.1501 34.4911 22.803 34.8176C23.4162 35.1242 24.3098 35.333 25.3333 35.333C26.3568 35.333 27.2505 35.1242 27.8636 34.8176C28.5166 34.4911 28.6667 34.1634 28.6667 33.9997C28.6667 33.6315 28.9651 33.333 29.3333 33.333C29.7015 33.333 30 33.6315 30 33.9997C30 34.9405 29.2546 35.6128 28.4599 36.0102C27.6253 36.4275 26.519 36.6663 25.3333 36.6663C24.1477 36.6663 23.0414 36.4275 22.2068 36.0102C21.412 35.6128 20.6667 34.9405 20.6667 33.9997C20.6667 33.6315 20.9651 33.333 21.3333 33.333Z" fill="#9E2424"/>
<path d="M21.3333 37.333C21.7015 37.333 22 37.6315 22 37.9997C22 38.1634 22.1501 38.4911 22.803 38.8176C23.4162 39.1242 24.3098 39.333 25.3333 39.333C26.3568 39.333 27.2505 39.1242 27.8636 38.8176C28.5166 38.4911 28.6667 38.1634 28.6667 37.9997C28.6667 37.6315 28.9651 37.333 29.3333 37.333C29.7015 37.333 30 37.6315 30 37.9997C30 38.9405 29.2546 39.6128 28.4599 40.0102C27.6253 40.4275 26.519 40.6663 25.3333 40.6663C24.1477 40.6663 23.0414 40.4275 22.2068 40.0102C21.412 39.6128 20.6667 38.9405 20.6667 37.9997C20.6667 37.6315 20.9651 37.333 21.3333 37.333Z" fill="#9E2424"/>
<path fill-rule="evenodd" clip-rule="evenodd" d="M32.8734 22.6558C33.708 22.2385 34.8144 21.9997 36 21.9997C37.1856 21.9997 38.292 22.2385 39.1266 22.6558C39.9213 23.0532 40.6667 23.7255 40.6667 24.6663C40.6667 25.6072 39.9213 26.2795 39.1266 26.6768C38.292 27.0941 37.1856 27.333 36 27.333C34.8144 27.333 33.708 27.0941 32.8734 26.6768C32.0787 26.2795 31.3333 25.6072 31.3333 24.6663C31.3333 23.7255 32.0787 23.0532 32.8734 22.6558ZM33.4697 23.8484C32.8167 24.1749 32.6667 24.5026 32.6667 24.6663C32.6667 24.8301 32.8167 25.1578 33.4697 25.4843C34.0828 25.7908 34.9765 25.9997 36 25.9997C37.0235 25.9997 37.9172 25.7908 38.5303 25.4843C39.1833 25.1578 39.3333 24.8301 39.3333 24.6663C39.3333 24.5026 39.1833 24.1749 38.5303 23.8484C37.9172 23.5419 37.0235 23.333 36 23.333C34.9765 23.333 34.0828 23.5419 33.4697 23.8484Z" fill="#9E2424"/>
<path d="M32 27.9997C32.3682 27.9997 32.6667 28.2982 32.6667 28.6663C32.6667 28.8301 32.8167 29.1578 33.4697 29.4843C34.0828 29.7908 34.9765 29.9997 36 29.9997C37.0235 29.9997 37.9172 29.7908 38.5303 29.4843C39.1833 29.1578 39.3333 28.8301 39.3333 28.6663C39.3333 28.2982 39.6318 27.9997 40 27.9997C40.3682 27.9997 40.6667 28.2982 40.6667 28.6663C40.6667 29.6072 39.9213 30.2795 39.1266 30.6768C38.292 31.0941 37.1856 31.333 36 31.333C34.8144 31.333 33.708 31.0941 32.8734 30.6768C32.0787 30.2795 31.3333 29.6072 31.3333 28.6663C31.3333 28.2982 31.6318 27.9997 32 27.9997Z" fill="#9E2424"/>
<path d="M32 31.9997C32.3682 31.9997 32.6667 32.2982 32.6667 32.6663C32.6667 32.8301 32.8167 33.1578 33.4697 33.4843C34.0828 33.7908 34.9765 33.9997 36 33.9997C37.0235 33.9997 37.9172 33.7908 38.5303 33.4843C39.1833 33.1578 39.3333 32.8301 39.3333 32.6663C39.3333 32.2982 39.6318 31.9997 40 31.9997C40.3682 31.9997 40.6667 32.2982 40.6667 32.6663C40.6667 33.6072 39.9213 34.2795 39.1266 34.6768C38.292 35.0941 37.1856 35.333 36 35.333C34.8144 35.333 33.708 35.0941 32.8734 34.6768C32.0787 34.2795 31.3333 33.6072 31.3333 32.6663C31.3333 32.2982 31.6318 31.9997 32 31.9997Z" fill="#9E2424"/>
<path d="M3.33333 19.9997C3.33333 11.5313 10.1983 4.66634 18.6667 4.66634C27.135 4.66634 34 11.5313 34 19.9997C34 20.3679 34.2985 20.6663 34.6667 20.6663C35.0349 20.6663 35.3333 20.3679 35.3333 19.9997C35.3333 10.7949 27.8714 3.33301 18.6667 3.33301C9.46192 3.33301 2 10.7949 2 19.9997C2 29.2044 9.46192 36.6663 18.6667 36.6663C19.0349 36.6663 19.3333 36.3679 19.3333 35.9997C19.3333 35.6315 19.0349 35.333 18.6667 35.333C10.1983 35.333 3.33333 28.468 3.33333 19.9997Z" stroke="#9E2424" stroke-linecap="round" stroke-linejoin="round"/>
<path d="M19.3333 10.6663C19.3333 10.2982 19.0349 9.99967 18.6667 9.99967C18.2985 9.99967 18 10.2982 18 10.6663V19.333H7.33333C6.96514 19.333 6.66667 19.6315 6.66667 19.9997C6.66667 20.3679 6.96514 20.6663 7.33333 20.6663H18.6667C19.0349 20.6663 19.3333 20.3679 19.3333 19.9997V10.6663Z" stroke="#9E2424" stroke-linecap="round" stroke-linejoin="round"/>
<path fill-rule="evenodd" clip-rule="evenodd" d="M22.2068 27.9892C23.0414 27.5719 24.1477 27.333 25.3333 27.333C26.519 27.333 27.6253 27.5719 28.4599 27.9892C29.2546 28.3865 30 29.0588 30 29.9997C30 30.9405 29.2546 31.6128 28.4599 32.0102C27.6253 32.4275 26.519 32.6663 25.3333 32.6663C24.1477 32.6663 23.0414 32.4275 22.2068 32.0102C21.412 31.6128 20.6667 30.9405 20.6667 29.9997C20.6667 29.0588 21.412 28.3865 22.2068 27.9892ZM22.803 29.1817C22.1501 29.5082 22 29.8359 22 29.9997C22 30.1634 22.1501 30.4911 22.803 30.8176C23.4162 31.1242 24.3098 31.333 25.3333 31.333C26.3568 31.333 27.2505 31.1242 27.8636 30.8176C28.5166 30.4911 28.6667 30.1634 28.6667 29.9997C28.6667 29.8359 28.5166 29.5082 27.8636 29.1817C27.2505 28.8752 26.3568 28.6663 25.3333 28.6663C24.3098 28.6663 23.4162 28.8752 22.803 29.1817Z" stroke="#9E2424" stroke-linecap="round" stroke-linejoin="round"/>
<path d="M21.3333 33.333C21.7015 33.333 22 33.6315 22 33.9997C22 34.1634 22.1501 34.4911 22.803 34.8176C23.4162 35.1242 24.3098 35.333 25.3333 35.333C26.3568 35.333 27.2505 35.1242 27.8636 34.8176C28.5166 34.4911 28.6667 34.1634 28.6667 33.9997C28.6667 33.6315 28.9651 33.333 29.3333 33.333C29.7015 33.333 30 33.6315 30 33.9997C30 34.9405 29.2546 35.6128 28.4599 36.0102C27.6253 36.4275 26.519 36.6663 25.3333 36.6663C24.1477 36.6663 23.0414 36.4275 22.2068 36.0102C21.412 35.6128 20.6667 34.9405 20.6667 33.9997C20.6667 33.6315 20.9651 33.333 21.3333 33.333Z" stroke="#9E2424" stroke-linecap="round" stroke-linejoin="round"/>
<path d="M21.3333 37.333C21.7015 37.333 22 37.6315 22 37.9997C22 38.1634 22.1501 38.4911 22.803 38.8176C23.4162 39.1242 24.3098 39.333 25.3333 39.333C26.3568 39.333 27.2505 39.1242 27.8636 38.8176C28.5166 38.4911 28.6667 38.1634 28.6667 37.9997C28.6667 37.6315 28.9651 37.333 29.3333 37.333C29.7015 37.333 30 37.6315 30 37.9997C30 38.9405 29.2546 39.6128 28.4599 40.0102C27.6253 40.4275 26.519 40.6663 25.3333 40.6663C24.1477 40.6663 23.0414 40.4275 22.2068 40.0102C21.412 39.6128 20.6667 38.9405 20.6667 37.9997C20.6667 37.6315 20.9651 37.333 21.3333 37.333Z" stroke="#9E2424" stroke-linecap="round" stroke-linejoin="round"/>
<path fill-rule="evenodd" clip-rule="evenodd" d="M32.8734 22.6558C33.708 22.2385 34.8144 21.9997 36 21.9997C37.1856 21.9997 38.292 22.2385 39.1266 22.6558C39.9213 23.0532 40.6667 23.7255 40.6667 24.6663C40.6667 25.6072 39.9213 26.2795 39.1266 26.6768C38.292 27.0941 37.1856 27.333 36 27.333C34.8144 27.333 33.708 27.0941 32.8734 26.6768C32.0787 26.2795 31.3333 25.6072 31.3333 24.6663C31.3333 23.7255 32.0787 23.0532 32.8734 22.6558ZM33.4697 23.8484C32.8167 24.1749 32.6667 24.5026 32.6667 24.6663C32.6667 24.8301 32.8167 25.1578 33.4697 25.4843C34.0828 25.7908 34.9765 25.9997 36 25.9997C37.0235 25.9997 37.9172 25.7908 38.5303 25.4843C39.1833 25.1578 39.3333 24.8301 39.3333 24.6663C39.3333 24.5026 39.1833 24.1749 38.5303 23.8484C37.9172 23.5419 37.0235 23.333 36 23.333C34.9765 23.333 34.0828 23.5419 33.4697 23.8484Z" stroke="#9E2424" stroke-linecap="round" stroke-linejoin="round"/>
<path d="M32 27.9997C32.3682 27.9997 32.6667 28.2982 32.6667 28.6663C32.6667 28.8301 32.8167 29.1578 33.4697 29.4843C34.0828 29.7908 34.9765 29.9997 36 29.9997C37.0235 29.9997 37.9172 29.7908 38.5303 29.4843C39.1833 29.1578 39.3333 28.8301 39.3333 28.6663C39.3333 28.2982 39.6318 27.9997 40 27.9997C40.3682 27.9997 40.6667 28.2982 40.6667 28.6663C40.6667 29.6072 39.9213 30.2795 39.1266 30.6768C38.292 31.0941 37.1856 31.333 36 31.333C34.8144 31.333 33.708 31.0941 32.8734 30.6768C32.0787 30.2795 31.3333 29.6072 31.3333 28.6663C31.3333 28.2982 31.6318 27.9997 32 27.9997Z" stroke="#9E2424" stroke-linecap="round" stroke-linejoin="round"/>
<path d="M32 31.9997C32.3682 31.9997 32.6667 32.2982 32.6667 32.6663C32.6667 32.8301 32.8167 33.1578 33.4697 33.4843C34.0828 33.7908 34.9765 33.9997 36 33.9997C37.0235 33.9997 37.9172 33.7908 38.5303 33.4843C39.1833 33.1578 39.3333 32.8301 39.3333 32.6663C39.3333 32.2982 39.6318 31.9997 40 31.9997C40.3682 31.9997 40.6667 32.2982 40.6667 32.6663C40.6667 33.6072 39.9213 34.2795 39.1266 34.6768C38.292 35.0941 37.1856 35.333 36 35.333C34.8144 35.333 33.708 35.0941 32.8734 34.6768C32.0787 34.2795 31.3333 33.6072 31.3333 32.6663C31.3333 32.2982 31.6318 31.9997 32 31.9997Z" stroke="#9E2424" stroke-linecap="round" stroke-linejoin="round"/>
</g>
</g>
</svg>
