<svg width="40" height="40" viewBox="0 0 40 40" fill="none" xmlns="http://www.w3.org/2000/svg">
<g id="icon">
<g id="Union">
<path fill-rule="evenodd" clip-rule="evenodd" d="M27.7419 8.38688V5.16107C27.7419 4.09213 26.8754 3.22559 25.8064 3.22559H14.1935C13.1246 3.22559 12.258 4.09213 12.258 5.16107V8.38688H5.16127C2.66708 8.38688 0.645142 10.4088 0.645142 12.903V23.8707H39.3548V12.903C39.3548 10.4088 37.3329 8.38688 34.8387 8.38688H27.7419ZM14.1935 4.51591C13.8372 4.51591 13.5484 4.80476 13.5484 5.16107V8.38688H26.4516V5.16107C26.4516 4.80476 26.1627 4.51591 25.8064 4.51591H14.1935ZM5.16127 9.6772C3.37971 9.6772 1.93546 11.1214 1.93546 12.903V22.5804H38.0645V12.903C38.0645 11.1214 36.6203 9.6772 34.8387 9.6772H5.16127Z" fill="#9E2424"/>
<path fill-rule="evenodd" clip-rule="evenodd" d="M0.645142 26.4514H39.3548V30.9675C39.3548 33.4617 37.3329 35.4837 34.8387 35.4837H5.16127C2.66708 35.4837 0.645142 33.4617 0.645142 30.9675V26.4514ZM1.93546 27.7417V30.9675C1.93546 32.7491 3.37971 34.1933 5.16127 34.1933H34.8387C36.6203 34.1933 38.0645 32.7491 38.0645 30.9675V27.7417H1.93546Z" fill="#9E2424"/>
<path fill-rule="evenodd" clip-rule="evenodd" d="M27.7419 8.38688V5.16107C27.7419 4.09213 26.8754 3.22559 25.8064 3.22559H14.1935C13.1246 3.22559 12.258 4.09213 12.258 5.16107V8.38688H5.16127C2.66708 8.38688 0.645142 10.4088 0.645142 12.903V23.8707H39.3548V12.903C39.3548 10.4088 37.3329 8.38688 34.8387 8.38688H27.7419ZM14.1935 4.51591C13.8372 4.51591 13.5484 4.80476 13.5484 5.16107V8.38688H26.4516V5.16107C26.4516 4.80476 26.1627 4.51591 25.8064 4.51591H14.1935ZM5.16127 9.6772C3.37971 9.6772 1.93546 11.1214 1.93546 12.903V22.5804H38.0645V12.903C38.0645 11.1214 36.6203 9.6772 34.8387 9.6772H5.16127Z" stroke="#9E2424"/>
<path fill-rule="evenodd" clip-rule="evenodd" d="M0.645142 26.4514H39.3548V30.9675C39.3548 33.4617 37.3329 35.4837 34.8387 35.4837H5.16127C2.66708 35.4837 0.645142 33.4617 0.645142 30.9675V26.4514ZM1.93546 27.7417V30.9675C1.93546 32.7491 3.37971 34.1933 5.16127 34.1933H34.8387C36.6203 34.1933 38.0645 32.7491 38.0645 30.9675V27.7417H1.93546Z" stroke="#9E2424"/>
</g>
</g>
</svg>
