<svg width="40" height="40" viewBox="0 0 40 40" fill="none" xmlns="http://www.w3.org/2000/svg">
<g id="icon">
<g id="Union">
<path fill-rule="evenodd" clip-rule="evenodd" d="M0.645142 10.3228C0.645142 7.82858 2.66708 5.80664 5.16127 5.80664H34.8387C37.3329 5.80664 39.3548 7.82858 39.3548 10.3228V14.8389H0.645142V10.3228ZM5.16127 7.09696C3.37971 7.09696 1.93546 8.54121 1.93546 10.3228V13.5486H38.0645V10.3228C38.0645 8.54121 36.6203 7.09696 34.8387 7.09696H5.16127Z" fill="#9E2424"/>
<path d="M26.4516 28.3873C26.4516 28.031 26.7404 27.7421 27.0968 27.7421H32.258C32.6144 27.7421 32.9032 28.031 32.9032 28.3873C32.9032 28.7436 32.6144 29.0324 32.258 29.0324H27.0968C26.7404 29.0324 26.4516 28.7436 26.4516 28.3873Z" fill="#9E2424"/>
<path fill-rule="evenodd" clip-rule="evenodd" d="M0.645142 17.4195H39.3548V28.3873C39.3548 30.8815 37.3329 32.9034 34.8387 32.9034H5.16127C2.66708 32.9034 0.645142 30.8815 0.645142 28.3873V17.4195ZM1.93546 18.7099V28.3873C1.93546 30.1688 3.37971 31.6131 5.16127 31.6131H34.8387C36.6203 31.6131 38.0645 30.1688 38.0645 28.3873V18.7099H1.93546Z" fill="#9E2424"/>
<path fill-rule="evenodd" clip-rule="evenodd" d="M0.645142 10.3228C0.645142 7.82858 2.66708 5.80664 5.16127 5.80664H34.8387C37.3329 5.80664 39.3548 7.82858 39.3548 10.3228V14.8389H0.645142V10.3228ZM5.16127 7.09696C3.37971 7.09696 1.93546 8.54121 1.93546 10.3228V13.5486H38.0645V10.3228C38.0645 8.54121 36.6203 7.09696 34.8387 7.09696H5.16127Z" stroke="#9E2424"/>
<path d="M26.4516 28.3873C26.4516 28.031 26.7404 27.7421 27.0968 27.7421H32.258C32.6144 27.7421 32.9032 28.031 32.9032 28.3873C32.9032 28.7436 32.6144 29.0324 32.258 29.0324H27.0968C26.7404 29.0324 26.4516 28.7436 26.4516 28.3873Z" stroke="#9E2424"/>
<path fill-rule="evenodd" clip-rule="evenodd" d="M0.645142 17.4195H39.3548V28.3873C39.3548 30.8815 37.3329 32.9034 34.8387 32.9034H5.16127C2.66708 32.9034 0.645142 30.8815 0.645142 28.3873V17.4195ZM1.93546 18.7099V28.3873C1.93546 30.1688 3.37971 31.6131 5.16127 31.6131H34.8387C36.6203 31.6131 38.0645 30.1688 38.0645 28.3873V18.7099H1.93546Z" stroke="#9E2424"/>
</g>
</g>
</svg>
