<svg width="40" height="40" viewBox="0 0 40 40" fill="none" xmlns="http://www.w3.org/2000/svg">
<g id="icon">
<g id="Union">
<path d="M28.1668 13.5831C28.4349 13.8177 28.4621 14.2253 28.2275 14.4935L19.1952 24.8161C19.0776 24.9504 18.9096 25.0301 18.7312 25.036C18.5527 25.042 18.3797 24.9737 18.2535 24.8474L13.0922 19.6861C12.8402 19.4342 12.8402 19.0257 13.0922 18.7737C13.3441 18.5218 13.7526 18.5218 14.0046 18.7737L18.6783 23.4474L27.2564 13.6438C27.491 13.3756 27.8986 13.3485 28.1668 13.5831Z" fill="#9E2424"/>
<path fill-rule="evenodd" clip-rule="evenodd" d="M19.4132 0.675096C19.795 0.553614 20.205 0.553614 20.5868 0.675096L33.4901 4.78067C34.2933 5.03623 34.8387 5.78218 34.8387 6.62504V19.2299C34.8387 25.8042 31.8864 30.5074 28.6506 33.6773C25.4245 36.8376 21.9012 38.4922 20.6787 39.0076C20.2392 39.193 19.7608 39.193 19.3213 39.0076C18.0988 38.4922 14.5755 36.8376 11.3494 33.6773C8.1136 30.5074 5.16129 25.8042 5.16129 19.2299V6.62503C5.16129 5.78216 5.70676 5.03622 6.50993 4.78067L19.4132 0.675096ZM20.1956 1.90468C20.0684 1.86418 19.9317 1.86418 19.8044 1.90468L6.90116 6.01025C6.63343 6.09544 6.45162 6.34408 6.45162 6.62503V19.2299C6.45162 25.374 9.1976 29.763 12.2523 32.7555C15.3167 35.7575 18.6762 37.3353 19.8226 37.8187C19.9416 37.8689 20.0584 37.8689 20.1774 37.8187C21.3238 37.3353 24.6833 35.7575 27.7477 32.7555C30.8024 29.763 33.5484 25.374 33.5484 19.2299V6.62504C33.5484 6.34409 33.3666 6.09544 33.0988 6.01025L20.1956 1.90468Z" fill="#9E2424"/>
<path d="M6.50993 4.78067C5.70676 5.03622 5.16129 5.78216 5.16129 6.62503V19.2299C5.16129 25.8042 8.1136 30.5074 11.3494 33.6773C14.5755 36.8376 18.0988 38.4922 19.3213 39.0076C19.7608 39.193 20.2392 39.193 20.6787 39.0076C21.9012 38.4922 25.4245 36.8376 28.6506 33.6773C31.8864 30.5074 34.8387 25.8042 34.8387 19.2299V6.62504C34.8387 5.78218 34.2933 5.03623 33.4901 4.78067L20.5868 0.675096C20.205 0.553614 19.795 0.553614 19.4132 0.675096L6.50993 4.78067ZM6.50993 4.78067L6.70555 5.39546M19.8044 1.90468C19.9317 1.86418 20.0684 1.86418 20.1956 1.90468L33.0988 6.01025C33.3666 6.09544 33.5484 6.34409 33.5484 6.62504V19.2299C33.5484 25.374 30.8024 29.763 27.7477 32.7555C24.6833 35.7575 21.3238 37.3353 20.1774 37.8187C20.0584 37.8689 19.9416 37.8689 19.8226 37.8187C18.6762 37.3353 15.3167 35.7575 12.2523 32.7555C9.1976 29.763 6.45162 25.374 6.45162 19.2299V6.62503C6.45162 6.34408 6.63343 6.09544 6.90116 6.01025L19.8044 1.90468ZM28.2275 14.4935C28.4621 14.2253 28.4349 13.8177 28.1668 13.5831C27.8986 13.3485 27.491 13.3756 27.2564 13.6438L18.6783 23.4474L14.0046 18.7737C13.7526 18.5218 13.3441 18.5218 13.0922 18.7737C12.8402 19.0257 12.8402 19.4342 13.0922 19.6861L18.2535 24.8474C18.3797 24.9737 18.5527 25.042 18.7312 25.036C18.9096 25.0301 19.0776 24.9504 19.1952 24.8161L28.2275 14.4935Z" stroke="#9E2424"/>
</g>
</g>
</svg>
