<svg width="40" height="40" viewBox="0 0 40 40" fill="none" xmlns="http://www.w3.org/2000/svg">
<g id="icon" clip-path="url(#clip0_146_1583)">
<g id="Union">
<path d="M9.33333 3.99967C9.33333 3.63148 9.03486 3.33301 8.66667 3.33301C8.29848 3.33301 8 3.63148 8 3.99967V9.72353L5.5286 12.1949C5.26825 12.4553 5.26825 12.8774 5.5286 13.1377C5.78895 13.3981 6.21106 13.3981 6.4714 13.1377L9.13807 10.4711C9.2631 10.3461 9.33333 10.1765 9.33333 9.99967V3.99967Z" fill="#9E2424"/>
<path fill-rule="evenodd" clip-rule="evenodd" d="M17.3333 9.99967C17.3333 10.224 17.3248 10.4463 17.3081 10.6663H21.2874C22.3157 10.6663 23.1494 11.5021 23.1494 12.533V17.5108H31.1291C31.7889 17.5108 32.3995 17.8609 32.7341 18.431L38.4096 28.1032C38.5779 28.3901 38.6667 28.7168 38.6667 29.0497V34.3108C38.6667 35.3417 37.833 36.1775 36.8046 36.1775H31.1563C30.8688 37.5975 29.6164 38.6663 28.1149 38.6663C26.6135 38.6663 25.3611 37.5975 25.0736 36.1775H13.777C13.4895 37.5975 12.2371 38.6663 10.7356 38.6663C9.23421 38.6663 7.98181 37.5975 7.69426 36.1775H4.52874C3.50034 36.1775 2.66667 35.3417 2.66667 34.3108V16.2536C1.02311 14.6763 0 12.4575 0 9.99967C0 5.21321 3.8802 1.33301 8.66667 1.33301C13.4531 1.33301 17.3333 5.21321 17.3333 9.99967ZM8.66667 17.333C12.7168 17.333 16 14.0498 16 9.99967C16 5.94959 12.7168 2.66634 8.66667 2.66634C4.61658 2.66634 1.33333 5.94959 1.33333 9.99967C1.33333 14.0498 4.61658 17.333 8.66667 17.333ZM8.66667 18.6663C12.7965 18.6663 16.2516 15.7778 17.1219 11.9108H21.2874C21.6302 11.9108 21.908 12.1894 21.908 12.533V34.933H13.777C13.4895 33.5129 12.2371 32.4441 10.7356 32.4441C9.23421 32.4441 7.98181 33.5129 7.69426 34.933H4.52874C4.18594 34.933 3.90805 34.6544 3.90805 34.3108V17.2442C5.27393 18.1432 6.90921 18.6663 8.66667 18.6663ZM23.1494 34.933H25.0736C25.3611 33.5129 26.6135 32.4441 28.1149 32.4441C29.6164 32.4441 30.8688 33.5129 31.1563 34.933H36.8046C37.1474 34.933 37.4253 34.6544 37.4253 34.3108V29.0497C37.4253 28.9387 37.3957 28.8298 37.3396 28.7342L31.6641 19.062C31.5526 18.8719 31.349 18.7552 31.1291 18.7552H23.1494V34.933ZM10.7356 33.6886C9.70724 33.6886 8.87356 34.5243 8.87356 35.5552C8.87356 36.5862 9.70724 37.4219 10.7356 37.4219C11.764 37.4219 12.5977 36.5862 12.5977 35.5552C12.5977 34.5243 11.764 33.6886 10.7356 33.6886ZM28.1149 33.6886C27.0866 33.6886 26.2529 34.5243 26.2529 35.5552C26.2529 36.5862 27.0866 37.4219 28.1149 37.4219C29.1433 37.4219 29.977 36.5862 29.977 35.5552C29.977 34.5243 29.1433 33.6886 28.1149 33.6886Z" fill="#9E2424"/>
<path d="M9.33333 3.99967C9.33333 3.63148 9.03486 3.33301 8.66667 3.33301C8.29848 3.33301 8 3.63148 8 3.99967V9.72353L5.5286 12.1949C5.26825 12.4553 5.26825 12.8774 5.5286 13.1377C5.78895 13.3981 6.21106 13.3981 6.4714 13.1377L9.13807 10.4711C9.2631 10.3461 9.33333 10.1765 9.33333 9.99967V3.99967Z" stroke="#9E2424" stroke-linecap="round" stroke-linejoin="round"/>
<path fill-rule="evenodd" clip-rule="evenodd" d="M17.3333 9.99967C17.3333 10.224 17.3248 10.4463 17.3081 10.6663H21.2874C22.3157 10.6663 23.1494 11.5021 23.1494 12.533V17.5108H31.1291C31.7889 17.5108 32.3995 17.8609 32.7341 18.431L38.4096 28.1032C38.5779 28.3901 38.6667 28.7168 38.6667 29.0497V34.3108C38.6667 35.3417 37.833 36.1775 36.8046 36.1775H31.1563C30.8688 37.5975 29.6164 38.6663 28.1149 38.6663C26.6135 38.6663 25.3611 37.5975 25.0736 36.1775H13.777C13.4895 37.5975 12.2371 38.6663 10.7356 38.6663C9.23421 38.6663 7.98181 37.5975 7.69426 36.1775H4.52874C3.50034 36.1775 2.66667 35.3417 2.66667 34.3108V16.2536C1.02311 14.6763 0 12.4575 0 9.99967C0 5.21321 3.8802 1.33301 8.66667 1.33301C13.4531 1.33301 17.3333 5.21321 17.3333 9.99967ZM8.66667 17.333C12.7168 17.333 16 14.0498 16 9.99967C16 5.94959 12.7168 2.66634 8.66667 2.66634C4.61658 2.66634 1.33333 5.94959 1.33333 9.99967C1.33333 14.0498 4.61658 17.333 8.66667 17.333ZM8.66667 18.6663C12.7965 18.6663 16.2516 15.7778 17.1219 11.9108H21.2874C21.6302 11.9108 21.908 12.1894 21.908 12.533V34.933H13.777C13.4895 33.5129 12.2371 32.4441 10.7356 32.4441C9.23421 32.4441 7.98181 33.5129 7.69426 34.933H4.52874C4.18594 34.933 3.90805 34.6544 3.90805 34.3108V17.2442C5.27393 18.1432 6.90921 18.6663 8.66667 18.6663ZM23.1494 34.933H25.0736C25.3611 33.5129 26.6135 32.4441 28.1149 32.4441C29.6164 32.4441 30.8688 33.5129 31.1563 34.933H36.8046C37.1474 34.933 37.4253 34.6544 37.4253 34.3108V29.0497C37.4253 28.9387 37.3957 28.8298 37.3396 28.7342L31.6641 19.062C31.5526 18.8719 31.349 18.7552 31.1291 18.7552H23.1494V34.933ZM10.7356 33.6886C9.70724 33.6886 8.87356 34.5243 8.87356 35.5552C8.87356 36.5862 9.70724 37.4219 10.7356 37.4219C11.764 37.4219 12.5977 36.5862 12.5977 35.5552C12.5977 34.5243 11.764 33.6886 10.7356 33.6886ZM28.1149 33.6886C27.0866 33.6886 26.2529 34.5243 26.2529 35.5552C26.2529 36.5862 27.0866 37.4219 28.1149 37.4219C29.1433 37.4219 29.977 36.5862 29.977 35.5552C29.977 34.5243 29.1433 33.6886 28.1149 33.6886Z" stroke="#9E2424" stroke-linecap="round" stroke-linejoin="round"/>
</g>
</g>
<defs>
<clipPath id="clip0_146_1583">
<rect width="40" height="40" fill="white"/>
</clipPath>
</defs>
</svg>
