<svg width="41" height="40" viewBox="0 0 41 40" fill="none" xmlns="http://www.w3.org/2000/svg">
<g id="Frame">
<g id="Union">
<path fill-rule="evenodd" clip-rule="evenodd" d="M11.4667 7.55523C11.4667 6.86794 12.0636 6.31079 12.8 6.31079H28.8C29.5364 6.31079 30.1333 6.86794 30.1333 7.55523V12.533C30.1333 13.2203 29.5364 13.7775 28.8 13.7775H12.8C12.0636 13.7775 11.4667 13.2203 11.4667 12.533V7.55523ZM12.8 7.55523H28.8V12.533H12.8V7.55523Z" fill="#F5F5F5"/>
<path fill-rule="evenodd" clip-rule="evenodd" d="M12.8 16.2663C12.0636 16.2663 11.4667 16.8235 11.4667 17.5108V19.9997C11.4667 20.687 12.0636 21.2441 12.8 21.2441H15.4667C16.2031 21.2441 16.8 20.687 16.8 19.9997V17.5108C16.8 16.8235 16.2031 16.2663 15.4667 16.2663H12.8ZM15.4667 17.5108H12.8V19.9997H15.4667V17.5108Z" fill="#F5F5F5"/>
<path fill-rule="evenodd" clip-rule="evenodd" d="M18.1333 17.5108C18.1333 16.8235 18.7303 16.2663 19.4667 16.2663H22.1333C22.8697 16.2663 23.4667 16.8235 23.4667 17.5108V19.9997C23.4667 20.687 22.8697 21.2441 22.1333 21.2441H19.4667C18.7303 21.2441 18.1333 20.687 18.1333 19.9997V17.5108ZM19.4667 17.5108H22.1333V19.9997H19.4667V17.5108Z" fill="#F5F5F5"/>
<path fill-rule="evenodd" clip-rule="evenodd" d="M26.1333 16.2663C25.397 16.2663 24.8 16.8235 24.8 17.5108V19.9997C24.8 20.687 25.397 21.2441 26.1333 21.2441H28.8C29.5364 21.2441 30.1333 20.687 30.1333 19.9997V17.5108C30.1333 16.8235 29.5364 16.2663 28.8 16.2663H26.1333ZM28.8 17.5108H26.1333V19.9997H28.8V17.5108Z" fill="#F5F5F5"/>
<path fill-rule="evenodd" clip-rule="evenodd" d="M24.8 23.733C24.8 23.0457 25.397 22.4886 26.1333 22.4886H28.8C29.5364 22.4886 30.1333 23.0457 30.1333 23.733V32.4441C30.1333 33.1314 29.5364 33.6886 28.8 33.6886H26.1333C25.397 33.6886 24.8 33.1314 24.8 32.4441V23.733ZM26.1333 23.733H28.8V32.4441H26.1333V23.733Z" fill="#F5F5F5"/>
<path fill-rule="evenodd" clip-rule="evenodd" d="M19.4667 22.4886C18.7303 22.4886 18.1333 23.0457 18.1333 23.733V26.2219C18.1333 26.9092 18.7303 27.4663 19.4667 27.4663H22.1333C22.8697 27.4663 23.4667 26.9092 23.4667 26.2219V23.733C23.4667 23.0457 22.8697 22.4886 22.1333 22.4886H19.4667ZM22.1333 23.733H19.4667V26.2219H22.1333V23.733Z" fill="#F5F5F5"/>
<path fill-rule="evenodd" clip-rule="evenodd" d="M18.1333 29.9552C18.1333 29.2679 18.7303 28.7108 19.4667 28.7108H22.1333C22.8697 28.7108 23.4667 29.2679 23.4667 29.9552V32.4441C23.4667 33.1314 22.8697 33.6886 22.1333 33.6886H19.4667C18.7303 33.6886 18.1333 33.1314 18.1333 32.4441V29.9552ZM19.4667 29.9552H22.1333V32.4441H19.4667V29.9552Z" fill="#F5F5F5"/>
<path fill-rule="evenodd" clip-rule="evenodd" d="M12.8 22.4886C12.0636 22.4886 11.4667 23.0457 11.4667 23.733V26.2219C11.4667 26.9092 12.0636 27.4663 12.8 27.4663H15.4667C16.2031 27.4663 16.8 26.9092 16.8 26.2219V23.733C16.8 23.0457 16.2031 22.4886 15.4667 22.4886H12.8ZM15.4667 23.733H12.8V26.2219H15.4667V23.733Z" fill="#F5F5F5"/>
<path fill-rule="evenodd" clip-rule="evenodd" d="M11.4667 29.9552C11.4667 29.2679 12.0636 28.7108 12.8 28.7108H15.4667C16.2031 28.7108 16.8 29.2679 16.8 29.9552V32.4441C16.8 33.1314 16.2031 33.6886 15.4667 33.6886H12.8C12.0636 33.6886 11.4667 33.1314 11.4667 32.4441V29.9552ZM12.8 29.9552H15.4667V32.4441H12.8V29.9552Z" fill="#F5F5F5"/>
<path fill-rule="evenodd" clip-rule="evenodd" d="M7.46667 5.06634C7.46667 3.00448 9.25754 1.33301 11.4667 1.33301H30.1333C32.3425 1.33301 34.1333 3.00448 34.1333 5.06634V34.933C34.1333 36.9949 32.3425 38.6663 30.1333 38.6663H11.4667C9.25754 38.6663 7.46667 36.9949 7.46667 34.933V5.06634ZM11.4667 2.57745H30.1333C31.6061 2.57745 32.8 3.69177 32.8 5.06634V34.933C32.8 36.3076 31.6061 37.4219 30.1333 37.4219H11.4667C9.99392 37.4219 8.80001 36.3076 8.80001 34.933V5.06634C8.80001 3.69177 9.99392 2.57745 11.4667 2.57745Z" fill="#F5F5F5"/>
</g>
</g>
</svg>
