<svg width="25" height="25" viewBox="0 0 25 25" fill="none" xmlns="http://www.w3.org/2000/svg">
<g id="Frame 130">
<g id="Union">
<path fill-rule="evenodd" clip-rule="evenodd" d="M6.6665 4.7219C6.6665 4.29234 7.0396 3.94412 7.49984 3.94412H17.4998C17.9601 3.94412 18.3332 4.29234 18.3332 4.7219V7.83301C18.3332 8.26256 17.9601 8.61079 17.4998 8.61079H7.49984C7.0396 8.61079 6.6665 8.26256 6.6665 7.83301V4.7219ZM7.49984 4.7219H17.4998V7.83301H7.49984V4.7219Z" fill="#9E2424"/>
<path fill-rule="evenodd" clip-rule="evenodd" d="M7.49984 10.1663C7.0396 10.1663 6.6665 10.5146 6.6665 10.9441V12.4997C6.6665 12.9292 7.0396 13.2775 7.49984 13.2775H9.1665C9.62674 13.2775 9.99984 12.9292 9.99984 12.4997V10.9441C9.99984 10.5146 9.62674 10.1663 9.1665 10.1663H7.49984ZM9.1665 10.9441H7.49984V12.4997H9.1665V10.9441Z" fill="#9E2424"/>
<path fill-rule="evenodd" clip-rule="evenodd" d="M10.8332 10.9441C10.8332 10.5146 11.2063 10.1663 11.6665 10.1663H13.3332C13.7934 10.1663 14.1665 10.5146 14.1665 10.9441V12.4997C14.1665 12.9292 13.7934 13.2775 13.3332 13.2775H11.6665C11.2063 13.2775 10.8332 12.9292 10.8332 12.4997V10.9441ZM11.6665 10.9441H13.3332V12.4997H11.6665V10.9441Z" fill="#9E2424"/>
<path fill-rule="evenodd" clip-rule="evenodd" d="M15.8332 10.1663C15.3729 10.1663 14.9998 10.5146 14.9998 10.9441V12.4997C14.9998 12.9292 15.3729 13.2775 15.8332 13.2775H17.4998C17.9601 13.2775 18.3332 12.9292 18.3332 12.4997V10.9441C18.3332 10.5146 17.9601 10.1663 17.4998 10.1663H15.8332ZM17.4998 10.9441H15.8332V12.4997H17.4998V10.9441Z" fill="#9E2424"/>
<path fill-rule="evenodd" clip-rule="evenodd" d="M14.9998 14.833C14.9998 14.4035 15.3729 14.0552 15.8332 14.0552H17.4998C17.9601 14.0552 18.3332 14.4035 18.3332 14.833V20.2775C18.3332 20.707 17.9601 21.0552 17.4998 21.0552H15.8332C15.3729 21.0552 14.9998 20.707 14.9998 20.2775V14.833ZM15.8332 14.833H17.4998V20.2775H15.8332V14.833Z" fill="#9E2424"/>
<path fill-rule="evenodd" clip-rule="evenodd" d="M11.6665 14.0552C11.2063 14.0552 10.8332 14.4035 10.8332 14.833V16.3886C10.8332 16.8181 11.2063 17.1663 11.6665 17.1663H13.3332C13.7934 17.1663 14.1665 16.8181 14.1665 16.3886V14.833C14.1665 14.4035 13.7934 14.0552 13.3332 14.0552H11.6665ZM13.3332 14.833H11.6665V16.3886H13.3332V14.833Z" fill="#9E2424"/>
<path fill-rule="evenodd" clip-rule="evenodd" d="M10.8332 18.7219C10.8332 18.2923 11.2063 17.9441 11.6665 17.9441H13.3332C13.7934 17.9441 14.1665 18.2923 14.1665 18.7219V20.2775C14.1665 20.707 13.7934 21.0552 13.3332 21.0552H11.6665C11.2063 21.0552 10.8332 20.707 10.8332 20.2775V18.7219ZM11.6665 18.7219H13.3332V20.2775H11.6665V18.7219Z" fill="#9E2424"/>
<path fill-rule="evenodd" clip-rule="evenodd" d="M7.49984 14.0552C7.0396 14.0552 6.6665 14.4035 6.6665 14.833V16.3886C6.6665 16.8181 7.0396 17.1663 7.49984 17.1663H9.1665C9.62674 17.1663 9.99984 16.8181 9.99984 16.3886V14.833C9.99984 14.4035 9.62674 14.0552 9.1665 14.0552H7.49984ZM9.1665 14.833H7.49984V16.3886H9.1665V14.833Z" fill="#9E2424"/>
<path fill-rule="evenodd" clip-rule="evenodd" d="M6.6665 18.7219C6.6665 18.2923 7.0396 17.9441 7.49984 17.9441H9.1665C9.62674 17.9441 9.99984 18.2923 9.99984 18.7219V20.2775C9.99984 20.707 9.62674 21.0552 9.1665 21.0552H7.49984C7.0396 21.0552 6.6665 20.707 6.6665 20.2775V18.7219ZM7.49984 18.7219H9.1665V20.2775H7.49984V18.7219Z" fill="#9E2424"/>
<path fill-rule="evenodd" clip-rule="evenodd" d="M4.1665 3.16634C4.1665 1.87768 5.28579 0.833008 6.6665 0.833008H18.3332C19.7139 0.833008 20.8332 1.87768 20.8332 3.16634V21.833C20.8332 23.1217 19.7139 24.1663 18.3332 24.1663H6.6665C5.28579 24.1663 4.1665 23.1217 4.1665 21.833V3.16634ZM6.6665 1.61079H18.3332C19.2536 1.61079 19.9998 2.30723 19.9998 3.16634V21.833C19.9998 22.6921 19.2536 23.3886 18.3332 23.3886H6.6665C5.74603 23.3886 4.99984 22.6921 4.99984 21.833V3.16634C4.99984 2.30723 5.74603 1.61079 6.6665 1.61079Z" fill="#9E2424"/>
</g>
</g>
</svg>
