<svg width="31" height="30" viewBox="0 0 31 30" fill="none" xmlns="http://www.w3.org/2000/svg">
<g id="Frame 57">
<g id="Union">
<path fill-rule="evenodd" clip-rule="evenodd" d="M6.85714 6.96373C6.85714 5.48439 8.08836 4.28516 9.60714 4.28516H27.6786C29.1974 4.28516 30.4286 5.48439 30.4286 6.96373V9.6423H6.85714V6.96373ZM9.60714 5.05046C8.5223 5.05046 7.64286 5.90706 7.64286 6.96373V8.87699H29.6429V6.96373C29.6429 5.90706 28.7634 5.05046 27.6786 5.05046H9.60714Z" fill="#9E2424"/>
<path d="M22.5714 17.678C22.5714 17.4667 22.7473 17.2954 22.9643 17.2954H26.1071C26.3241 17.2954 26.5 17.4667 26.5 17.678C26.5 17.8893 26.3241 18.0607 26.1071 18.0607H22.9643C22.7473 18.0607 22.5714 17.8893 22.5714 17.678Z" fill="#9E2424"/>
<path d="M30.4286 11.1729H6.85714V12.9455C7.12503 12.9904 7.3873 13.0519 7.64286 13.1289V11.9382H29.6429V17.678C29.6429 18.7347 28.7634 19.5913 27.6786 19.5913H12.2071C12.195 19.8507 12.1674 20.1061 12.1254 20.3566H27.6786C29.1974 20.3566 30.4286 19.1573 30.4286 17.678V11.1729Z" fill="#9E2424"/>
<path d="M8.25536 18.491C8.4085 18.3105 8.38633 18.0401 8.20585 17.8869C8.02537 17.7338 7.75492 17.756 7.60178 17.9365L5.2013 20.7656L3.96965 19.314C3.81651 19.1335 3.54606 19.1114 3.36558 19.2645C3.1851 19.4176 3.16293 19.6881 3.31607 19.8686L4.87451 21.7053C4.95594 21.8013 5.07544 21.8566 5.2013 21.8566C5.32716 21.8566 5.44666 21.8013 5.52809 21.7053L8.25536 18.491Z" fill="#9E2424"/>
<path fill-rule="evenodd" clip-rule="evenodd" d="M0 19.2852C0 16.0898 2.59035 13.4994 5.78571 13.4994C8.98108 13.4994 11.5714 16.0898 11.5714 19.2852C11.5714 22.4805 8.98108 25.0709 5.78571 25.0709C2.59035 25.0709 0 22.4805 0 19.2852ZM5.78571 14.3566C3.06374 14.3566 0.857143 16.5632 0.857143 19.2852C0.857143 22.0071 3.06374 24.2137 5.78571 24.2137C8.50769 24.2137 10.7143 22.0071 10.7143 19.2852C10.7143 16.5632 8.50769 14.3566 5.78571 14.3566Z" fill="#9E2424"/>
</g>
</g>
</svg>
