<svg width="40" height="40" viewBox="0 0 40 40" fill="none" xmlns="http://www.w3.org/2000/svg">
<g id="Frame 191">
<g id="Union">
<path d="M8 24.0007H5.33333V36.0007H8V24.0007Z" fill="#9E2424"/>
<path d="M12 24.0007H14.6667V36.0007H12V24.0007Z" fill="#9E2424"/>
<path d="M18.6667 24.0007V36.0007H21.3333V24.0007H18.6667Z" fill="#9E2424"/>
<path d="M25.3333 24.0007H28V36.0007H25.3333V24.0007Z" fill="#9E2424"/>
<path d="M34.6667 24.0007H32V36.0007H34.6667V24.0007Z" fill="#9E2424"/>
<path fill-rule="evenodd" clip-rule="evenodd" d="M38.6667 5.33398H20.6667V8.734C22.1882 9.04284 23.3333 10.388 23.3333 12.0007C23.3333 13.3893 22.4842 14.5796 21.2768 15.0807L26.9616 21.334H36C36.7364 21.334 37.3333 21.9309 37.3333 22.6673V37.334C37.3333 38.0704 36.7364 38.6673 36 38.6673H4C3.26362 38.6673 2.66667 38.0704 2.66667 37.334V22.6673C2.66667 21.9309 3.26362 21.334 4 21.334H13.0384L18.7232 15.0807C17.5158 14.5796 16.6667 13.3893 16.6667 12.0007C16.6667 11.6325 16.9651 11.334 17.3333 11.334C17.7015 11.334 18 11.6325 18 12.0007C18 13.1052 18.8954 14.0007 20 14.0007C21.1046 14.0007 22 13.1052 22 12.0007C22 10.8961 21.1046 10.0007 20 10.0007C19.6318 10.0007 19.3333 9.70217 19.3333 9.33398V5.33398H1.33333C0.596955 5.33398 0 4.73703 0 4.00065V2.66732C0 1.93094 0.596954 1.33398 1.33333 1.33398H38.6667C39.403 1.33398 40 1.93094 40 2.66732V4.00065C40 4.73703 39.403 5.33398 38.6667 5.33398ZM38.6667 2.66732H1.33333V4.00065H38.6667V2.66732ZM14.8404 21.334H25.1596L20 15.6584L14.8404 21.334ZM4 22.6673V37.334H36V22.6673H4Z" fill="#9E2424"/>
</g>
</g>
</svg>
