<svg width="30" height="30" viewBox="0 0 30 30" fill="none" xmlns="http://www.w3.org/2000/svg">
<g id="Frame 81">
<g id="Union">
<path d="M7 3C7 2.72386 6.77614 2.5 6.5 2.5C6.22386 2.5 6 2.72386 6 3V7.29289L4.14645 9.14645C3.95118 9.34171 3.95118 9.65829 4.14645 9.85355C4.34171 10.0488 4.65829 10.0488 4.85355 9.85355L6.85355 7.85355C6.94732 7.75979 7 7.63261 7 7.5V3Z" fill="#9E2424"/>
<path fill-rule="evenodd" clip-rule="evenodd" d="M13 7.5C13 7.66824 12.9936 7.83498 12.9811 8H15.9655C16.7368 8 17.3621 8.6268 17.3621 9.4V13.1333H23.3468C23.8417 13.1333 24.2996 13.3959 24.5505 13.8235L28.8072 21.0777C28.9334 21.2928 29 21.5379 29 21.7875V25.7333C29 26.5065 28.3747 27.1333 27.6034 27.1333H23.3672C23.1516 28.1984 22.2123 29 21.0862 29C19.9601 29 19.0208 28.1984 18.8052 27.1333H10.3328C10.1171 28.1984 9.17779 29 8.05172 29C6.92566 29 5.98636 28.1984 5.7707 27.1333H3.39655C2.62526 27.1333 2 26.5065 2 25.7333V12.1904C0.76733 11.0075 0 9.34336 0 7.5C0 3.91015 2.91015 1 6.5 1C10.0899 1 13 3.91015 13 7.5ZM6.5 13C9.53757 13 12 10.5376 12 7.5C12 4.46243 9.53757 2 6.5 2C3.46243 2 1 4.46243 1 7.5C1 10.5376 3.46243 13 6.5 13ZM6.5 14C9.59736 14 12.1887 11.8336 12.8414 8.93333H15.9655C16.2226 8.93333 16.431 9.14227 16.431 9.4V26.2H10.3328C10.1171 25.135 9.17779 24.3333 8.05172 24.3333C6.92566 24.3333 5.98636 25.135 5.7707 26.2H3.39655C3.13945 26.2 2.93103 25.9911 2.93103 25.7333V12.9334C3.95545 13.6077 5.18191 14 6.5 14ZM17.3621 26.2H18.8052C19.0208 25.135 19.9601 24.3333 21.0862 24.3333C22.2123 24.3333 23.1516 25.135 23.3672 26.2H27.6034C27.8605 26.2 28.069 25.9911 28.069 25.7333V21.7875C28.069 21.7043 28.0468 21.6226 28.0047 21.5509L23.7481 14.2967C23.6644 14.1542 23.5118 14.0667 23.3468 14.0667H17.3621V26.2ZM8.05172 25.2667C7.28043 25.2667 6.65517 25.8935 6.65517 26.6667C6.65517 27.4399 7.28043 28.0667 8.05172 28.0667C8.82302 28.0667 9.44828 27.4399 9.44828 26.6667C9.44828 25.8935 8.82302 25.2667 8.05172 25.2667ZM21.0862 25.2667C20.3149 25.2667 19.6897 25.8935 19.6897 26.6667C19.6897 27.4399 20.3149 28.0667 21.0862 28.0667C21.8575 28.0667 22.4828 27.4399 22.4828 26.6667C22.4828 25.8935 21.8575 25.2667 21.0862 25.2667Z" fill="#9E2424"/>
</g>
</g>
</svg>
