<svg width="40" height="40" viewBox="0 0 40 40" fill="none" xmlns="http://www.w3.org/2000/svg">
<g id="Frame 192">
<g id="Union">
<path d="M6.15385 12.409H3.07692V26.2551H6.15385V12.409Z" fill="#9E2424"/>
<path d="M10.7692 12.409H13.8462V26.2551H10.7692V12.409Z" fill="#9E2424"/>
<path d="M18.4615 12.409V26.2551H21.5385V12.409H18.4615Z" fill="#9E2424"/>
<path d="M26.1538 12.409H29.2308V26.2551H26.1538V12.409Z" fill="#9E2424"/>
<path d="M36.9231 12.409H33.8462V26.2551H36.9231V12.409Z" fill="#9E2424"/>
<path fill-rule="evenodd" clip-rule="evenodd" d="M3.07692 12.409H6.15385V26.2551H3.07692V12.409ZM13.8462 12.409H10.7692V26.2551H13.8462V12.409ZM18.4615 26.2551V12.409H21.5385V26.2551H18.4615ZM29.2308 12.409H26.1538V26.2551H29.2308V12.409ZM33.8462 12.409H36.9231V26.2551H33.8462V12.409Z" fill="#9E2424"/>
<path fill-rule="evenodd" clip-rule="evenodd" d="M28.0326 9.33203H38.4615C39.3112 9.33203 40 10.0208 40 10.8705V27.7936C40 28.6432 39.3112 29.332 38.4615 29.332H1.53846C0.688794 29.332 0 28.6432 0 27.7936V10.8705C0 10.0208 0.688793 9.33203 1.53846 9.33203H11.9674H14.0466H25.9534H28.0326ZM1.53846 10.8705V27.7936H38.4615V10.8705H1.53846Z" fill="#9E2424"/>
</g>
</g>
</svg>
