<svg width="40" height="40" viewBox="0 0 40 40" fill="none" xmlns="http://www.w3.org/2000/svg">
<g id="Frame 183">
<g id="Union">
<path fill-rule="evenodd" clip-rule="evenodd" d="M31.7851 15.625H23.75C23.75 15.125 23.3333 15 23.125 15C22.9167 15 22.5 15.125 22.5 15.625V28.125V29.375V33.125H8.06249C7.77295 31.6986 6.51185 30.625 5 30.625C4.2965 30.625 3.64729 30.8575 3.125 31.2498C2.52488 31.7005 2.09232 32.3623 1.93751 33.125H5H1.875H0.625C0.125 33.125 0 33.5417 0 33.75C0 33.9583 0.125 34.375 0.625 34.375H5H1.93751C2.22706 35.8014 3.48815 36.875 5 36.875C6.51185 36.875 7.77295 35.8014 8.06249 34.375H25.6875C25.9771 35.8014 27.2381 36.875 28.75 36.875C30.2619 36.875 31.5229 35.8014 31.8125 34.375H37.5C38.5355 34.375 39.375 33.5355 39.375 32.5V27.2154C39.375 26.8811 39.2856 26.5529 39.1161 26.2647L33.4012 16.5493C33.0643 15.9766 32.4495 15.625 31.7851 15.625ZM23.75 33.125H25.6875C25.9771 31.6986 27.2381 30.625 28.75 30.625C30.2619 30.625 31.5229 31.6986 31.8125 33.125H37.5C37.8452 33.125 38.125 32.8452 38.125 32.5V27.2154C38.125 27.104 38.0952 26.9945 38.0387 26.8985L32.3238 17.1831C32.2115 16.9922 32.0065 16.875 31.7851 16.875H23.75V33.125ZM5 31.875C3.96447 31.875 3.125 32.7145 3.125 33.75C3.125 34.7855 3.96447 35.625 5 35.625C6.03553 35.625 6.875 34.7855 6.875 33.75C6.875 32.7145 6.03553 31.875 5 31.875ZM28.75 31.875C27.7145 31.875 26.875 32.7145 26.875 33.75C26.875 34.7855 27.7145 35.625 28.75 35.625C29.7855 35.625 30.625 34.7855 30.625 33.75C30.625 32.7145 29.7855 31.875 28.75 31.875Z" fill="#9E2424"/>
<path d="M0.625 33.125H1.875V30.625C1.875 29.375 1.875 29.375 3.125 29.375H22.5V28.125H20.625H19.375H4.375H2.5C1.25 28.125 0.625 28.75 0.625 29.9517V33.125Z" fill="#9E2424"/>
<path d="M20.625 28.125L15.9549 17.6173C15.7543 17.1659 15.3066 16.875 14.8127 16.875H6.875C6.18464 16.875 5.625 17.4346 5.625 18.125V23.125C5.625 23.625 6.04167 23.75 6.25 23.75C6.45833 23.75 6.875 23.625 6.875 23.125V18.125H14.1825C14.6791 18.125 15.1286 18.419 15.3277 18.874L19.375 28.125H20.625Z" fill="#9E2424"/>
</g>
</g>
</svg>
