<svg width="40" height="40" viewBox="0 0 40 40" fill="none" xmlns="http://www.w3.org/2000/svg">
<g id="Frame 187">
<g id="Union">
<path d="M17.3186 12.134C16.9923 12.134 16.7277 12.4026 16.7277 12.734C16.7277 13.0654 16.9923 13.334 17.3186 13.334H26.0169C26.3432 13.334 26.6078 13.0654 26.6078 12.734C26.6078 12.4026 26.3432 12.134 26.0169 12.134H17.3186Z" fill="#9E2424"/>
<path d="M15.1381 10.1959C15.3984 10.4563 15.3984 10.8784 15.1381 11.1387L12.4714 13.8054C12.2111 14.0657 11.789 14.0657 11.5286 13.8054L10.1953 12.4721C9.93492 12.2117 9.93492 11.7896 10.1953 11.5292C10.4556 11.2689 10.8777 11.2689 11.1381 11.5292L12 12.3912L14.1953 10.1959C14.4556 9.93556 14.8777 9.93556 15.1381 10.1959Z" fill="#9E2424"/>
<path d="M15.1381 16.4721C15.3984 16.2117 15.3984 15.7896 15.1381 15.5292C14.8777 15.2689 14.4556 15.2689 14.1953 15.5292L12 17.7245L11.1381 16.8626C10.8777 16.6022 10.4556 16.6022 10.1953 16.8626C9.93492 17.1229 9.93492 17.545 10.1953 17.8054L11.5286 19.1387C11.789 19.3991 12.2111 19.3991 12.4714 19.1387L15.1381 16.4721Z" fill="#9E2424"/>
<path d="M15.1381 20.8626C15.3984 21.1229 15.3984 21.545 15.1381 21.8054L12.4714 24.4721C12.2111 24.7324 11.789 24.7324 11.5286 24.4721L10.1953 23.1387C9.93492 22.8784 9.93492 22.4563 10.1953 22.1959C10.4556 21.9356 10.8777 21.9356 11.1381 22.1959L12 23.0578L14.1953 20.8626C14.4556 20.6022 14.8777 20.6022 15.1381 20.8626Z" fill="#9E2424"/>
<path d="M15.1381 27.1387C15.3984 26.8784 15.3984 26.4563 15.1381 26.1959C14.8777 25.9356 14.4556 25.9356 14.1953 26.1959L12 28.3912L11.1381 27.5292C10.8777 27.2689 10.4556 27.2689 10.1953 27.5292C9.93492 27.7896 9.93492 28.2117 10.1953 28.4721L11.5286 29.8054C11.789 30.0657 12.2111 30.0657 12.4714 29.8054L15.1381 27.1387Z" fill="#9E2424"/>
<path fill-rule="evenodd" clip-rule="evenodd" d="M5.33334 5.53398C5.33334 3.21439 7.18541 1.33398 9.47005 1.33398H27.1988C29.4834 1.33398 31.3355 3.21439 31.3355 5.53398V12.9347L34.3149 9.90972C34.5457 9.67541 34.9198 9.67541 35.1506 9.90972L38.4936 13.3038C38.7244 13.5381 38.7244 13.918 38.4936 14.1524L31.3355 21.42V33.134C31.3355 35.4536 29.4834 37.334 27.1988 37.334H9.47005C7.18541 37.334 5.33334 35.4536 5.33334 33.134V5.53398ZM30.1536 22.62L28.8826 23.9105C28.8377 23.9561 28.7858 23.994 28.729 24.0229L22.0431 27.417C21.9569 27.4607 21.8639 27.4814 21.7719 27.4803C21.6648 27.6338 21.4885 27.734 21.2892 27.734H17.3186C16.9923 27.734 16.7277 27.4654 16.7277 27.134C16.7277 26.8026 16.9923 26.534 17.3186 26.534H21.2886L23.0615 22.934H17.3186C16.9923 22.934 16.7277 22.6654 16.7277 22.334C16.7277 22.0026 16.9923 21.734 17.3186 21.734H23.6524L24.5932 19.8237C24.6216 19.766 24.659 19.7134 24.7039 19.6678L26.2726 18.075C26.1952 18.1128 26.1085 18.134 26.0169 18.134H17.3186C16.9923 18.134 16.7277 17.8654 16.7277 17.534C16.7277 17.2026 16.9923 16.934 17.3186 16.934H26.0169C26.3432 16.934 26.6078 17.2026 26.6078 17.534C26.6078 17.627 26.587 17.7151 26.5497 17.7937L30.1536 14.1347V5.53398C30.1536 3.87713 28.8307 2.53398 27.1988 2.53398H9.47005C7.83816 2.53398 6.51526 3.87713 6.51526 5.53398V33.134C6.51526 34.7908 7.83816 36.134 9.47005 36.134H27.1988C28.8307 36.134 30.1536 34.7908 30.1536 33.134V22.62ZM34.3149 11.6068L34.7328 11.1825L37.24 13.7281L36.8221 14.1524L34.3149 11.6068ZM35.9864 15.0009L28.4647 22.6377L25.9575 20.0921L33.4792 12.4553L35.9864 15.0009ZM25.2836 21.105L27.4671 23.3218L23.1002 25.5387L25.2836 21.105Z" fill="#9E2424"/>
</g>
</g>
</svg>
