<svg width="40" height="40" viewBox="0 0 40 40" fill="none" xmlns="http://www.w3.org/2000/svg">
<g id="Frame 185">
<g id="Union">
<path fill-rule="evenodd" clip-rule="evenodd" d="M12 12C12 13.4728 10.8061 14.6667 9.33337 14.6667C7.86061 14.6667 6.66671 13.4728 6.66671 12C6.66671 10.5272 7.86061 9.33333 9.33337 9.33333C10.8061 9.33333 12 10.5272 12 12ZM10.6667 12C10.6667 12.7364 10.0698 13.3333 9.33337 13.3333C8.59699 13.3333 8.00004 12.7364 8.00004 12C8.00004 11.2636 8.59699 10.6667 9.33337 10.6667C10.0698 10.6667 10.6667 11.2636 10.6667 12Z" fill="#9E2424"/>
<path fill-rule="evenodd" clip-rule="evenodd" d="M30.6667 25.3333C32.1395 25.3333 33.3334 24.1394 33.3334 22.6667C33.3334 21.1939 32.1395 20 30.6667 20C29.1939 20 28 21.1939 28 22.6667C28 24.1394 29.1939 25.3333 30.6667 25.3333ZM30.6667 24C31.4031 24 32 23.403 32 22.6667C32 21.9303 31.4031 21.3333 30.6667 21.3333C29.9303 21.3333 29.3334 21.9303 29.3334 22.6667C29.3334 23.403 29.9303 24 30.6667 24Z" fill="#9E2424"/>
<path fill-rule="evenodd" clip-rule="evenodd" d="M12 12C12 13.4728 10.8061 14.6667 9.33337 14.6667C7.86061 14.6667 6.66671 13.4728 6.66671 12C6.66671 10.5272 7.86061 9.33333 9.33337 9.33333C10.8061 9.33333 12 10.5272 12 12ZM10.6667 12C10.6667 12.7364 10.0698 13.3333 9.33337 13.3333C8.59699 13.3333 8.00004 12.7364 8.00004 12C8.00004 11.2636 8.59699 10.6667 9.33337 10.6667C10.0698 10.6667 10.6667 11.2636 10.6667 12ZM30.6667 25.3333C32.1395 25.3333 33.3334 24.1394 33.3334 22.6667C33.3334 21.1939 32.1395 20 30.6667 20C29.1939 20 28 21.1939 28 22.6667C28 24.1394 29.1939 25.3333 30.6667 25.3333ZM30.6667 24C31.4031 24 32 23.403 32 22.6667C32 21.9303 31.4031 21.3333 30.6667 21.3333C29.9303 21.3333 29.3334 21.9303 29.3334 22.6667C29.3334 23.403 29.9303 24 30.6667 24Z" fill="#9E2424"/>
<path fill-rule="evenodd" clip-rule="evenodd" d="M30.6667 25.3333C32.1395 25.3333 33.3334 24.1394 33.3334 22.6667C33.3334 21.1939 32.1395 20 30.6667 20C29.1939 20 28 21.1939 28 22.6667C28 24.1394 29.1939 25.3333 30.6667 25.3333ZM30.6667 24C31.4031 24 32 23.403 32 22.6667C32 21.9303 31.4031 21.3333 30.6667 21.3333C29.9303 21.3333 29.3334 21.9303 29.3334 22.6667C29.3334 23.403 29.9303 24 30.6667 24ZM12 12C12 13.4728 10.8061 14.6667 9.33337 14.6667C7.86061 14.6667 6.66671 13.4728 6.66671 12C6.66671 10.5272 7.86061 9.33333 9.33337 9.33333C10.8061 9.33333 12 10.5272 12 12ZM10.6667 12C10.6667 12.7364 10.0698 13.3333 9.33337 13.3333C8.59699 13.3333 8.00004 12.7364 8.00004 12C8.00004 11.2636 8.59699 10.6667 9.33337 10.6667C10.0698 10.6667 10.6667 11.2636 10.6667 12Z" fill="#9E2424"/>
<path d="M13.3334 29.3333V30.6667H16V29.3333H13.3334Z" fill="#9E2424"/>
<path fill-rule="evenodd" clip-rule="evenodd" d="M17.3334 11.4667C17.3334 14.6517 12.561 21.1889 10.3882 24H17.3334C19.1743 24 20.6667 25.4924 20.6667 27.3333C20.6667 29.1743 19.1743 30.6667 17.3334 30.6667V29.3333C18.4379 29.3333 19.3334 28.4379 19.3334 27.3333C19.3334 26.2288 18.4379 25.3333 17.3334 25.3333H10.9552C9.93073 25.3333 8.9625 24.8651 8.32646 24.062C6.17692 21.2861 1.33337 14.6753 1.33337 11.4667C1.33337 7.34294 4.9151 4 9.33337 4C13.7517 4 17.3334 7.34294 17.3334 11.4667ZM15.3215 13.8634C15.7891 12.795 16 11.9865 16 11.4667C16 8.16447 13.1034 5.33333 9.33337 5.33333C5.56334 5.33333 2.66671 8.16447 2.66671 11.4667C2.66671 11.9865 2.87768 12.795 3.34525 13.8634C3.79864 14.8995 4.43664 16.0551 5.15892 17.2271C6.58104 19.5346 8.26724 21.8051 9.33338 23.1845C10.3995 21.8051 12.0857 19.5346 13.5078 17.2271C14.2301 16.0551 14.8681 14.8995 15.3215 13.8634Z" fill="#9E2424"/>
<path d="M9.33337 29.3333V30.6667H12V29.3333H9.33337Z" fill="#9E2424"/>
<path fill-rule="evenodd" clip-rule="evenodd" d="M9.33337 29.3333C7.49242 29.3333 6.00004 30.8257 6.00004 32.6667C6.00004 34.5076 7.49242 36 9.33337 36H30.0219C30.4292 36 30.8142 35.8138 31.0671 35.4945L31.6736 34.7287C33.8232 31.9528 38.6667 25.342 38.6667 22.1333C38.6667 18.0096 35.085 14.6667 30.6667 14.6667C26.2484 14.6667 22.6667 18.0096 22.6667 22.1333C22.6667 25.3184 27.4391 31.8556 29.6118 34.6667H9.33337C8.2288 34.6667 7.33337 33.7712 7.33337 32.6667C7.33337 31.5621 8.2288 30.6667 9.33337 30.6667V29.3333ZM36.6548 24.5301C37.1224 23.4617 37.3334 22.6532 37.3334 22.1333C37.3334 18.8311 34.4367 16 30.6667 16C26.8967 16 24 18.8311 24 22.1333C24 22.6532 24.211 23.4617 24.6786 24.5301C25.132 25.5661 25.77 26.7218 26.4923 27.8938C27.9144 30.2013 29.6006 32.4718 30.6667 33.8512C31.7328 32.4718 33.419 30.2013 34.8412 27.8938C35.5634 26.7218 36.2014 25.5661 36.6548 24.5301Z" fill="#9E2424"/>
<path fill-rule="evenodd" clip-rule="evenodd" d="M30.6667 25.3333C32.1395 25.3333 33.3334 24.1394 33.3334 22.6667C33.3334 21.1939 32.1395 20 30.6667 20C29.1939 20 28 21.1939 28 22.6667C28 24.1394 29.1939 25.3333 30.6667 25.3333ZM30.6667 24C31.4031 24 32 23.403 32 22.6667C32 21.9303 31.4031 21.3333 30.6667 21.3333C29.9303 21.3333 29.3334 21.9303 29.3334 22.6667C29.3334 23.403 29.9303 24 30.6667 24ZM12 12C12 13.4728 10.8061 14.6667 9.33337 14.6667C7.86061 14.6667 6.66671 13.4728 6.66671 12C6.66671 10.5272 7.86061 9.33333 9.33337 9.33333C10.8061 9.33333 12 10.5272 12 12ZM10.6667 12C10.6667 12.7364 10.0698 13.3333 9.33337 13.3333C8.59699 13.3333 8.00004 12.7364 8.00004 12C8.00004 11.2636 8.59699 10.6667 9.33337 10.6667C10.0698 10.6667 10.6667 11.2636 10.6667 12Z" fill="#9E2424"/>
</g>
</g>
</svg>
