<svg width="40" height="40" viewBox="0 0 40 40" fill="none" xmlns="http://www.w3.org/2000/svg">
<g id="Frame 186">
<path id="Union" fill-rule="evenodd" clip-rule="evenodd" d="M30.3725 23.3327L26.0154 16.2524C25.4087 15.2665 24.3341 14.666 23.1765 14.666H11.9695C10.5062 14.666 9.21395 15.6204 8.7836 17.0191L6.84095 23.3327H5.33333C3.49238 23.3327 2 24.8251 2 26.666V31.9993C2 33.1039 2.89543 33.9993 4 33.9993H6.66667C6.66667 35.8403 8.15905 37.3327 10 37.3327C11.8409 37.3327 13.3333 35.8403 13.3333 33.9993H26.6667C26.6667 35.8403 28.159 37.3327 30 37.3327C31.841 37.3327 33.3333 35.8403 33.3333 33.9993H36C37.1046 33.9993 38 33.1039 38 31.9993V26.666C38 24.8251 36.5076 23.3327 34.6667 23.3327H30.3725ZM11.9695 15.9993C11.0915 15.9993 10.3162 16.572 10.058 17.4112L8.23597 23.3327H16.6667V15.9993H11.9695ZM18 15.9993V23.3327H28.807L24.8799 16.9512C24.5159 16.3597 23.8711 15.9993 23.1765 15.9993H18ZM33.056 32.666H36C36.3682 32.666 36.6667 32.3675 36.6667 31.9993V26.666C36.6667 25.5614 35.7712 24.666 34.6667 24.666H5.33333C4.22876 24.666 3.33333 25.5614 3.33333 26.666V31.9993C3.33333 32.3675 3.63181 32.666 4 32.666H6.94403C7.4584 31.4887 8.63312 30.666 10 30.666C11.3669 30.666 12.5416 31.4887 13.056 32.666H26.944C27.4584 31.4887 28.6331 30.666 30 30.666C31.3669 30.666 32.5416 31.4887 33.056 32.666ZM10 35.9993C11.1046 35.9993 12 35.1039 12 33.9993C12 32.8948 11.1046 31.9993 10 31.9993C8.89543 31.9993 8 32.8948 8 33.9993C8 35.1039 8.89543 35.9993 10 35.9993ZM32 33.9993C32 35.1039 31.1046 35.9993 30 35.9993C28.8954 35.9993 28 35.1039 28 33.9993C28 32.8948 28.8954 31.9993 30 31.9993C31.1046 31.9993 32 32.8948 32 33.9993Z" fill="#9E2424"/>
</g>
</svg>
