<svg width="41" height="40" viewBox="0 0 41 40" fill="none" xmlns="http://www.w3.org/2000/svg">
<g id="Frame">
<g id="Union">
<path d="M10.24 12.5513C9.90233 12.5513 9.62863 12.8292 9.62863 13.172C9.62863 13.5148 9.90233 13.7927 10.24 13.7927H26.1347C26.4723 13.7927 26.746 13.5148 26.746 13.172C26.746 12.8292 26.4723 12.5513 26.1347 12.5513H10.24Z" fill="#F5F5F5"/>
<path fill-rule="evenodd" clip-rule="evenodd" d="M4.73795 5.72373C4.73795 3.32415 6.65387 1.37891 9.01729 1.37891H27.3574C29.7208 1.37891 31.6367 3.32415 31.6367 5.72373V13.3797L34.7189 10.2504C34.9576 10.008 35.3447 10.008 35.5834 10.2504L39.0416 13.7615C39.2804 14.0039 39.2804 14.3969 39.0416 14.6393L31.6367 22.1576V34.2755C31.6367 36.675 29.7208 38.6203 27.3574 38.6203H9.01729C6.65387 38.6203 4.73795 36.675 4.73795 34.2755V5.72373ZM30.414 23.3989L29.0992 24.7339C29.0527 24.7811 28.9991 24.8203 28.9403 24.8502L22.0239 28.3613C21.9347 28.4066 21.8385 28.428 21.7433 28.4268C21.6326 28.5856 21.4502 28.6893 21.244 28.6893H10.24C9.90233 28.6893 9.62863 28.4114 9.62863 28.0686C9.62863 27.7258 9.90233 27.4479 10.24 27.4479H21.2434L23.0774 23.7237H10.24C9.90233 23.7237 9.62863 23.4458 9.62863 23.103C9.62863 22.7602 9.90233 22.4824 10.24 22.4824H23.6887L24.6619 20.5062C24.6913 20.4466 24.73 20.3921 24.7764 20.3449L26.3993 18.6972C26.3192 18.7363 26.2295 18.7582 26.1347 18.7582H10.24C9.90233 18.7582 9.62863 18.4803 9.62863 18.1375C9.62863 17.7947 9.90233 17.5168 10.24 17.5168H26.1347C26.4723 17.5168 26.746 17.7947 26.746 18.1375C26.746 18.2338 26.7244 18.3249 26.6859 18.4062L30.414 14.621V5.72373C30.414 4.00975 29.0455 2.62029 27.3574 2.62029H9.01729C7.32914 2.62029 5.96062 4.00975 5.96062 5.72373V34.2755C5.96062 35.9894 7.32914 37.3789 9.01729 37.3789H27.3574C29.0455 37.3789 30.414 35.9894 30.414 34.2755V23.3989ZM34.7189 12.0059L35.1511 11.567L37.7448 14.2004L37.3125 14.6393L34.7189 12.0059ZM33.8543 12.8837L36.448 15.5171L28.6669 23.4172L26.0733 20.7838L33.8543 12.8837ZM25.3762 21.8316L27.6349 24.125L23.1174 26.4182L25.3762 21.8316Z" fill="#F5F5F5"/>
</g>
</g>
</svg>
