<svg width="41" height="40" viewBox="0 0 41 40" fill="none" xmlns="http://www.w3.org/2000/svg">
<g id="Frame" clip-path="url(#clip0_146_1493)">
<g id="Union">
<path fill-rule="evenodd" clip-rule="evenodd" d="M0.400024 5.16176C0.400024 4.80545 0.688873 4.5166 1.04519 4.5166H22.3355C23.4044 4.5166 24.271 5.38315 24.271 6.45209V11.6134H32.5653C33.2511 11.6134 33.8858 11.9764 34.2335 12.5675L40.1328 22.5963C40.3078 22.8938 40.4 23.2326 40.4 23.5776V29.0327C40.4 30.1017 39.5335 30.9682 38.4645 30.9682H32.5936C32.2947 32.4406 30.9929 33.5489 29.4323 33.5489C27.8717 33.5489 26.5699 32.4406 26.271 30.9682H14.529C14.2302 32.4406 12.9284 33.5489 11.3678 33.5489C9.80715 33.5489 8.50537 32.4406 8.20649 30.9682H4.91615C3.84722 30.9682 2.98067 30.1017 2.98067 29.0327V18.7101C2.98067 18.3538 3.26952 18.065 3.62583 18.065C3.98214 18.065 4.27099 18.3538 4.27099 18.7101V29.0327C4.27099 29.389 4.55984 29.6779 4.91615 29.6779H8.20649C8.50537 28.2055 9.80715 27.0972 11.3678 27.0972C12.9284 27.0972 14.2302 28.2055 14.529 29.6779H22.9807V6.45209C22.9807 6.09577 22.6918 5.80692 22.3355 5.80692H1.04519C0.688873 5.80692 0.400024 5.51808 0.400024 5.16176ZM24.271 29.6779H26.271C26.5699 28.2055 27.8717 27.0972 29.4323 27.0972C30.9929 27.0972 32.2947 28.2055 32.5936 29.6779H38.4645C38.8209 29.6779 39.1097 29.389 39.1097 29.0327V23.5776C39.1097 23.4626 39.0789 23.3497 39.0206 23.2505L33.1213 13.2217C33.0054 13.0247 32.7939 12.9037 32.5653 12.9037H24.271V29.6779ZM11.3678 28.3876C10.2988 28.3876 9.43228 29.2541 9.43228 30.3231C9.43228 31.392 10.2988 32.2585 11.3678 32.2585C12.4367 32.2585 13.3032 31.392 13.3032 30.3231C13.3032 29.2541 12.4367 28.3876 11.3678 28.3876ZM29.4323 28.3876C28.3633 28.3876 27.4968 29.2541 27.4968 30.3231C27.4968 31.392 28.3633 32.2585 29.4323 32.2585C30.5012 32.2585 31.3678 31.392 31.3678 30.3231C31.3678 29.2541 30.5012 28.3876 29.4323 28.3876Z" fill="#F5F5F5"/>
<path d="M1.69035 10.9682C1.69035 10.6119 1.9792 10.3231 2.33551 10.3231H8.78712C9.14343 10.3231 9.43228 10.6119 9.43228 10.9682C9.43228 11.3245 9.14343 11.6134 8.78712 11.6134H2.33551C1.9792 11.6134 1.69035 11.3245 1.69035 10.9682Z" fill="#F5F5F5"/>
</g>
</g>
<defs>
<clipPath id="clip0_146_1493">
<rect width="40" height="40" fill="white" transform="translate(0.400024)"/>
</clipPath>
</defs>
</svg>
