<svg width="30" height="30" viewBox="0 0 30 30" fill="none" xmlns="http://www.w3.org/2000/svg">
<g id="Frame 47">
<g id="Union">
<path fill-rule="evenodd" clip-rule="evenodd" d="M14.9999 6.197C15.2671 6.197 15.4838 6.41364 15.4838 6.68087V7.08147C17.6185 7.29644 19.3547 8.91646 19.3547 10.9819C19.3547 11.2492 19.1381 11.4658 18.8708 11.4658C18.6036 11.4658 18.387 11.2492 18.387 10.9819C18.387 9.53624 17.1652 8.2621 15.4838 8.05449V13.9632C17.6185 14.1782 19.3547 15.7982 19.3547 17.8637C19.3547 19.9292 17.6185 21.5492 15.4838 21.7641V22.1647C15.4838 22.432 15.2671 22.6486 14.9999 22.6486C14.7326 22.6486 14.516 22.432 14.516 22.1647V21.7641C12.3812 21.5492 10.645 19.9292 10.645 17.8637C10.645 17.5964 10.8617 17.3798 11.1289 17.3798C11.3961 17.3798 11.6128 17.5964 11.6128 17.8637C11.6128 19.3094 12.8345 20.5835 14.516 20.7911V14.8824C12.3812 14.6674 10.645 13.0474 10.645 10.9819C10.645 8.91646 12.3812 7.29644 14.516 7.08147V6.68087C14.516 6.41364 14.7326 6.197 14.9999 6.197ZM14.516 8.05449C12.8345 8.2621 11.6128 9.53624 11.6128 10.9819C11.6128 12.4277 12.8345 13.7018 14.516 13.9094V8.05449ZM15.4838 14.9362V20.7911C17.1652 20.5835 18.387 19.3094 18.387 17.8637C18.387 16.418 17.1652 15.1438 15.4838 14.9362Z" fill="#9E2424"/>
<path fill-rule="evenodd" clip-rule="evenodd" d="M14.5597 0.506688C14.8461 0.415577 15.1537 0.415577 15.44 0.506688L25.1174 3.58587C25.7198 3.77754 26.1289 4.337 26.1289 4.96915V14.4228C26.1289 19.3535 23.9147 22.8809 21.4878 25.2583C19.0683 27.6286 16.4258 28.8695 15.5089 29.2561C15.1793 29.3951 14.8205 29.3951 14.4908 29.2561C13.574 28.8695 10.9315 27.6286 8.51192 25.2583C6.08508 22.8809 3.87085 19.3535 3.87085 14.4228V4.96914C3.87085 4.33698 4.27995 3.77753 4.88233 3.58587L14.5597 0.506688ZM15.1466 1.42887C15.0511 1.3985 14.9486 1.3985 14.8532 1.42887L5.17575 4.50805C4.97495 4.57194 4.83859 4.75843 4.83859 4.96914V14.4228C4.83859 19.0309 6.89808 22.3227 9.18913 24.567C11.4874 26.8185 14.007 28.0019 14.8668 28.3644C14.9561 28.402 15.0437 28.402 15.1329 28.3644C15.9927 28.0019 18.5123 26.8185 20.8106 24.567C23.1017 22.3227 25.1612 19.0309 25.1612 14.4228V4.96915C25.1612 4.75843 25.0248 4.57194 24.824 4.50805L15.1466 1.42887Z" fill="#9E2424"/>
</g>
</g>
</svg>
