<svg width="25" height="25" viewBox="0 0 25 25" fill="none" xmlns="http://www.w3.org/2000/svg">
<g id="Frame 164">
<path id="Union" fill-rule="evenodd" clip-rule="evenodd" d="M11.6431 0.702008C11.3545 0.0961669 10.6262 -0.167463 10.0101 0.110829L4.8845 2.42585C4.42046 2.63544 4.1287 3.10889 4.17047 3.62C4.78669 11.1608 8.1582 18.3963 13.5873 23.8112C13.9513 24.1743 14.5027 24.2651 14.9654 24.0564L20.1101 21.7363C20.7364 21.4539 21.0084 20.7203 20.715 20.1047L18.5452 15.5505C18.2567 14.9449 17.5289 14.6812 16.9128 14.959L14.8492 15.8896C14.6799 15.9659 14.4904 15.9198 14.3842 15.79C12.6273 13.6428 11.2492 10.9083 10.8975 8.20667C10.878 8.05684 10.9631 7.89977 11.1249 7.8268L13.2076 6.88756C13.8338 6.6052 14.1062 5.87157 13.8128 5.2558L11.6431 0.702008ZM10.353 0.851678C10.5584 0.758915 10.8011 0.846791 10.8974 1.04874L13.067 5.60253C13.1647 5.80761 13.0741 6.05231 12.8652 6.14652L10.7824 7.08576C10.3151 7.29654 10.0112 7.7822 10.0799 8.31031C10.4556 11.1955 11.9147 14.0672 13.7433 16.302C14.0968 16.734 14.6959 16.8542 15.1917 16.6307L17.2553 15.7C17.4606 15.6074 17.7032 15.6953 17.7994 15.8972L19.9693 20.4514C20.067 20.6566 19.9764 20.9011 19.7676 20.9953L14.6229 23.3154C14.4668 23.3858 14.2877 23.3527 14.1727 23.238C8.87968 17.9587 5.59259 10.9028 4.99212 3.55475C4.97895 3.3936 5.0708 3.23744 5.22742 3.1667L10.353 0.851678Z" fill="white"/>
</g>
</svg>
