<svg width="30" height="30" viewBox="0 0 30 30" fill="none" xmlns="http://www.w3.org/2000/svg">
<g id="Frame 183">
<g id="Union">
<path fill-rule="evenodd" clip-rule="evenodd" d="M23.8388 11.7188H17.8125C17.8125 11.3437 17.5 11.25 17.3438 11.25C17.1875 11.25 16.875 11.3437 16.875 11.7188V21.0938V22.0312V24.8438H6.04687C5.82971 23.7739 4.88389 22.9688 3.75 22.9688C3.22237 22.9688 2.73547 23.1431 2.34375 23.4373C1.89366 23.7754 1.56924 24.2718 1.45313 24.8438H3.75H1.40625H0.46875C0.09375 24.8438 0 25.1562 0 25.3125C0 25.4688 0.09375 25.7812 0.46875 25.7812H3.75H1.45313C1.67029 26.8511 2.61611 27.6562 3.75 27.6562C4.88389 27.6562 5.82971 26.8511 6.04687 25.7812H19.2656C19.4828 26.8511 20.4286 27.6562 21.5625 27.6562C22.6964 27.6562 23.6422 26.8511 23.8594 25.7812H28.125C28.9016 25.7812 29.5312 25.1516 29.5312 24.375V20.4115C29.5312 20.1608 29.4642 19.9147 29.3371 19.6985L25.0509 12.412C24.7982 11.9825 24.3371 11.7188 23.8388 11.7188ZM17.8125 24.8438H19.2656C19.4828 23.7739 20.4286 22.9688 21.5625 22.9688C22.6964 22.9688 23.6422 23.7739 23.8594 24.8438H28.125C28.3839 24.8438 28.5937 24.6339 28.5937 24.375V20.4115C28.5937 20.328 28.5714 20.2459 28.529 20.1739L24.2428 12.8873C24.1586 12.7442 24.0049 12.6562 23.8388 12.6562H17.8125V24.8438ZM3.75 23.9062C2.97335 23.9062 2.34375 24.5359 2.34375 25.3125C2.34375 26.0891 2.97335 26.7188 3.75 26.7188C4.52665 26.7188 5.15625 26.0891 5.15625 25.3125C5.15625 24.5359 4.52665 23.9062 3.75 23.9062ZM21.5625 23.9062C20.7859 23.9062 20.1562 24.5359 20.1562 25.3125C20.1562 26.0891 20.7859 26.7188 21.5625 26.7188C22.3391 26.7188 22.9688 26.0891 22.9688 25.3125C22.9688 24.5359 22.3391 23.9062 21.5625 23.9062Z" fill="#9E2424"/>
<path d="M0.46875 24.8438H1.40625V22.9688C1.40625 22.0312 1.40625 22.0312 2.34375 22.0312H16.875V21.0938H15.4688H14.5312H3.28125H1.875C0.9375 21.0938 0.46875 21.5625 0.46875 22.4638V24.8438Z" fill="#9E2424"/>
<path d="M15.4688 21.0938L11.9662 13.213C11.8157 12.8744 11.48 12.6562 11.1095 12.6562H5.15625C4.63848 12.6562 4.21875 13.076 4.21875 13.5938V17.3438C4.21875 17.7188 4.53125 17.8125 4.6875 17.8125C4.84375 17.8125 5.15625 17.7188 5.15625 17.3438V13.5938H10.6369C11.0093 13.5938 11.3465 13.8142 11.4958 14.1555L14.5312 21.0938H15.4688Z" fill="#9E2424"/>
</g>
</g>
</svg>
