<svg width="30" height="30" viewBox="0 0 30 30" fill="none" xmlns="http://www.w3.org/2000/svg">
<g id="Frame 43">
<g id="Union">
<path d="M21.1251 10.1868C21.3262 10.3628 21.3466 10.6685 21.1706 10.8696L14.3964 18.6116C14.3082 18.7123 14.1822 18.7721 14.0484 18.7765C13.9145 18.781 13.7848 18.7298 13.6901 18.6351L9.81915 14.7641C9.63018 14.5751 9.63018 14.2688 9.81915 14.0798C10.0081 13.8908 10.3145 13.8908 10.5034 14.0798L14.0087 17.5851L20.4423 10.2324C20.6183 10.0312 20.924 10.0109 21.1251 10.1868Z" fill="#9E2424"/>
<path fill-rule="evenodd" clip-rule="evenodd" d="M14.5599 0.505833C14.8462 0.414722 15.1538 0.414722 15.4401 0.505833L25.1176 3.58501C25.7199 3.77668 26.129 4.33615 26.129 4.96829V14.422C26.129 19.3527 23.9148 22.8801 21.488 25.2575C19.0684 27.6277 16.4259 28.8687 15.509 29.2552C15.1794 29.3942 14.8206 29.3942 14.491 29.2552C13.5741 28.8687 10.9316 27.6277 8.51204 25.2575C6.0852 22.8801 3.87097 19.3527 3.87097 14.422V4.96828C3.87097 4.33613 4.28007 3.77668 4.88245 3.58501L14.5599 0.505833ZM15.1467 1.42802C15.0513 1.39765 14.9487 1.39765 14.8533 1.42802L5.17587 4.5072C4.97507 4.57109 4.83871 4.75757 4.83871 4.96828V14.422C4.83871 19.03 6.8982 22.3218 9.18925 24.5662C11.4876 26.8176 14.0072 28.001 14.8669 28.3635C14.9562 28.4012 15.0438 28.4012 15.1331 28.3635C15.9929 28.001 18.5124 26.8176 20.8108 24.5662C23.1018 22.3218 25.1613 19.03 25.1613 14.422V4.96829C25.1613 4.75758 25.0249 4.57109 24.8241 4.5072L15.1467 1.42802Z" fill="#9E2424"/>
</g>
</g>
</svg>
