<svg width="30" height="30" viewBox="0 0 30 30" fill="none" xmlns="http://www.w3.org/2000/svg">
<g id="Frame 53">
<g id="Union">
<path d="M7.22991 9.41447C6.97668 9.41447 6.77141 9.62289 6.77141 9.87998C6.77141 10.1371 6.97668 10.3455 7.22991 10.3455H19.1509C19.4042 10.3455 19.6094 10.1371 19.6094 9.87998C19.6094 9.62289 19.4042 9.41447 19.1509 9.41447H7.22991Z" fill="#9E2424"/>
<path fill-rule="evenodd" clip-rule="evenodd" d="M3.10339 4.29378C3.10339 2.49409 4.54034 1.03516 6.3129 1.03516H20.0679C21.8405 1.03516 23.2775 2.49409 23.2775 4.29378V10.0357L25.5891 7.68874C25.7681 7.50695 26.0584 7.50695 26.2375 7.68874L28.8312 10.3221C29.0102 10.5039 29.0102 10.7987 28.8312 10.9804L23.2775 16.6191V25.7076C23.2775 27.5073 21.8405 28.9662 20.0679 28.9662H6.3129C4.54034 28.9662 3.10339 27.5073 3.10339 25.7076V4.29378ZM22.3605 17.5502L21.3743 18.5514C21.3395 18.5868 21.2993 18.6162 21.2552 18.6386L16.0678 21.272C16.0009 21.3059 15.9288 21.3219 15.8574 21.3211C15.7744 21.4402 15.6376 21.5179 15.4829 21.5179H7.22991C6.97668 21.5179 6.77141 21.3095 6.77141 21.0524C6.77141 20.7953 6.97668 20.5869 7.22991 20.5869H15.4825L16.858 17.7938H7.22991C6.97668 17.7938 6.77141 17.5854 6.77141 17.3283C6.77141 17.0712 6.97668 16.8627 7.22991 16.8627H17.3165L18.0464 15.3806C18.0684 15.3359 18.0974 15.295 18.1323 15.2597L19.3494 14.0239C19.2894 14.0532 19.222 14.0696 19.1509 14.0696H7.22991C6.97668 14.0696 6.77141 13.8612 6.77141 13.6041C6.77141 13.347 6.97668 13.1386 7.22991 13.1386H19.1509C19.4042 13.1386 19.6094 13.347 19.6094 13.6041C19.6094 13.6763 19.5933 13.7446 19.5644 13.8056L22.3605 10.9668V4.29378C22.3605 3.00829 21.3341 1.96619 20.0679 1.96619H6.3129C5.04679 1.96619 4.0204 3.00829 4.0204 4.29378V25.7076C4.0204 26.9931 5.04679 28.0352 6.3129 28.0352H20.0679C21.3341 28.0352 22.3605 26.9931 22.3605 25.7076V17.5502ZM25.5891 9.00543L25.9133 8.67626L27.8585 10.6513L27.5343 10.9804L25.5891 9.00543ZM24.9407 9.66377L26.8859 11.6388L21.0501 17.5639L19.1049 15.5888L24.9407 9.66377ZM18.5821 16.3747L20.2761 18.0947L16.888 19.8147L18.5821 16.3747Z" fill="#9E2424"/>
</g>
</g>
</svg>
