<svg width="30" height="30" viewBox="0 0 30 30" fill="none" xmlns="http://www.w3.org/2000/svg">
<g id="Frame 218">
<g id="Union">
<path d="M20.4092 4.75196L24.6445 1.12092C24.9406 0.86707 25.4004 1.03487 25.4633 1.41976L26.3623 6.91278C26.424 7.28968 26.0574 7.59378 25.6984 7.46357L23.6451 6.71891C21.9743 10.4752 18.7773 13.2967 14.8431 15.2042C10.6386 17.2428 5.56162 18.2543 0.5 18.2543C0.223858 18.2543 0 18.0304 0 17.7543C0 17.4781 0.223858 17.2543 0.5 17.2543C5.43838 17.2543 10.3614 16.2658 14.4069 14.3044C18.1672 12.4812 21.1431 9.83195 22.7024 6.37704L20.5642 5.60159C20.2043 5.47108 20.1186 5.00111 20.4092 4.75196Z" fill="#9E2424"/>
<path fill-rule="evenodd" clip-rule="evenodd" d="M24.5 11.7544C23.6716 11.7544 23 12.426 23 13.2544V29.2544C23 29.5305 23.2239 29.7544 23.5 29.7544H29.5C29.7761 29.7544 30 29.5305 30 29.2544V13.2544C30 12.426 29.3284 11.7544 28.5 11.7544H24.5ZM24 13.2544C24 12.9783 24.2239 12.7544 24.5 12.7544H28.5C28.7761 12.7544 29 12.9783 29 13.2544V28.7544H24V13.2544Z" fill="#9E2424"/>
<path fill-rule="evenodd" clip-rule="evenodd" d="M17 16.2544C16.1716 16.2544 15.5 16.926 15.5 17.7544V29.2544C15.5 29.5305 15.7239 29.7544 16 29.7544H21.5C21.7761 29.7544 22 29.5305 22 29.2544V17.7544C22 16.926 21.3284 16.2544 20.5 16.2544H17ZM16.5 17.7544C16.5 17.4783 16.7239 17.2544 17 17.2544H20.5C20.7761 17.2544 21 17.4783 21 17.7544V28.7544H16.5V17.7544Z" fill="#9E2424"/>
<path fill-rule="evenodd" clip-rule="evenodd" d="M9.5 20.2544C8.67157 20.2544 8 20.926 8 21.7544V29.2544C8 29.5305 8.22386 29.7544 8.5 29.7544H14C14.2761 29.7544 14.5 29.5305 14.5 29.2544V21.7544C14.5 20.926 13.8284 20.2544 13 20.2544H9.5ZM9 21.7544C9 21.4783 9.22386 21.2544 9.5 21.2544H13C13.2761 21.2544 13.5 21.4783 13.5 21.7544V28.7544H9V21.7544Z" fill="#9E2424"/>
<path fill-rule="evenodd" clip-rule="evenodd" d="M1.5 23.2544C0.671573 23.2544 0 23.926 0 24.7544V29.2544C0 29.5305 0.223858 29.7544 0.5 29.7544H6.5C6.77614 29.7544 7 29.5305 7 29.2544V24.7544C7 23.926 6.32843 23.2544 5.5 23.2544H1.5ZM1 24.7544C1 24.4783 1.22386 24.2544 1.5 24.2544H5.5C5.77614 24.2544 6 24.4783 6 24.7544V28.7544H1V24.7544Z" fill="#9E2424"/>
</g>
</g>
</svg>
