<svg width="25" height="26" viewBox="0 0 25 26" fill="none" xmlns="http://www.w3.org/2000/svg">
<g id="Frame 51">
<g id="Union">
<path fill-rule="evenodd" clip-rule="evenodd" d="M9.6772 9.87106C9.6772 8.31219 10.9409 7.04848 12.4998 7.04848C14.0586 7.04848 15.3224 8.31219 15.3224 9.87106C15.3224 11.4299 14.0586 12.6936 12.4998 12.6936C10.9409 12.6936 9.6772 11.4299 9.6772 9.87106ZM12.4998 7.85493C11.3863 7.85493 10.4837 8.75759 10.4837 9.87106C10.4837 10.9845 11.3863 11.8872 12.4998 11.8872C13.6133 11.8872 14.5159 10.9845 14.5159 9.87106C14.5159 8.75759 13.6133 7.85493 12.4998 7.85493Z" fill="white"/>
<path fill-rule="evenodd" clip-rule="evenodd" d="M3.22559 10.6775C3.22559 5.55552 7.37778 1.40332 12.4998 1.40332C17.6218 1.40332 21.774 5.55552 21.774 10.6775C21.774 11.8002 21.3492 13.1081 20.7181 14.4444C20.083 15.7892 19.2195 17.2024 18.3003 18.5467C16.4618 21.2359 14.3775 23.6831 13.3856 24.8091C12.9137 25.3448 12.0858 25.3448 11.6139 24.8091C10.6221 23.6831 8.5378 21.2359 6.69921 18.5467C5.78009 17.2024 4.91658 15.7892 4.28144 14.4444C3.65032 13.1081 3.22559 11.8002 3.22559 10.6775ZM12.4998 2.20977C7.82317 2.20977 4.03204 6.00091 4.03204 10.6775C4.03204 11.6213 4.39641 12.7995 5.01065 14.1C5.62088 15.3921 6.459 16.7665 7.36494 18.0916C9.17648 20.7412 11.2361 23.1601 12.2191 24.2761C12.3699 24.4473 12.6297 24.4473 12.7805 24.2761C13.7635 23.1601 15.8231 20.7412 17.6346 18.0916C18.5406 16.7665 19.3787 15.3921 19.9889 14.1C20.6032 12.7995 20.9675 11.6213 20.9675 10.6775C20.9675 6.00091 17.1764 2.20977 12.4998 2.20977Z" fill="white"/>
<path fill-rule="evenodd" clip-rule="evenodd" d="M9.6772 9.87106C9.6772 8.31219 10.9409 7.04848 12.4998 7.04848C14.0586 7.04848 15.3224 8.31219 15.3224 9.87106C15.3224 11.4299 14.0586 12.6936 12.4998 12.6936C10.9409 12.6936 9.6772 11.4299 9.6772 9.87106ZM12.4998 7.85493C11.3863 7.85493 10.4837 8.75759 10.4837 9.87106C10.4837 10.9845 11.3863 11.8872 12.4998 11.8872C13.6133 11.8872 14.5159 10.9845 14.5159 9.87106C14.5159 8.75759 13.6133 7.85493 12.4998 7.85493Z" stroke="white"/>
<path fill-rule="evenodd" clip-rule="evenodd" d="M3.22559 10.6775C3.22559 5.55552 7.37778 1.40332 12.4998 1.40332C17.6218 1.40332 21.774 5.55552 21.774 10.6775C21.774 11.8002 21.3492 13.1081 20.7181 14.4444C20.083 15.7892 19.2195 17.2024 18.3003 18.5467C16.4618 21.2359 14.3775 23.6831 13.3856 24.8091C12.9137 25.3448 12.0858 25.3448 11.6139 24.8091C10.6221 23.6831 8.5378 21.2359 6.69921 18.5467C5.78009 17.2024 4.91658 15.7892 4.28144 14.4444C3.65032 13.1081 3.22559 11.8002 3.22559 10.6775ZM12.4998 2.20977C7.82317 2.20977 4.03204 6.00091 4.03204 10.6775C4.03204 11.6213 4.39641 12.7995 5.01065 14.1C5.62088 15.3921 6.459 16.7665 7.36494 18.0916C9.17648 20.7412 11.2361 23.1601 12.2191 24.2761C12.3699 24.4473 12.6297 24.4473 12.7805 24.2761C13.7635 23.1601 15.8231 20.7412 17.6346 18.0916C18.5406 16.7665 19.3787 15.3921 19.9889 14.1C20.6032 12.7995 20.9675 11.6213 20.9675 10.6775C20.9675 6.00091 17.1764 2.20977 12.4998 2.20977Z" stroke="white"/>
</g>
</g>
</svg>
