<svg width="30" height="30" viewBox="0 0 30 30" fill="none" xmlns="http://www.w3.org/2000/svg">
<g id="Frame 193">
<g id="Union">
<path fill-rule="evenodd" clip-rule="evenodd" d="M11.6128 10.6457C11.6128 8.77502 13.1292 7.25857 14.9999 7.25857C16.8705 7.25857 18.387 8.77502 18.387 10.6457C18.387 12.5163 16.8705 14.0328 14.9999 14.0328C13.1292 14.0328 11.6128 12.5163 11.6128 10.6457ZM14.9999 8.22631C13.6637 8.22631 12.5805 9.30949 12.5805 10.6457C12.5805 11.9818 13.6637 13.065 14.9999 13.065C16.3361 13.065 17.4192 11.9818 17.4192 10.6457C17.4192 9.30949 16.3361 8.22631 14.9999 8.22631Z" fill="#9E2424"/>
<path fill-rule="evenodd" clip-rule="evenodd" d="M3.87085 11.6134C3.87085 5.46701 8.85349 0.484375 14.9999 0.484375C21.1463 0.484375 26.1289 5.46701 26.1289 11.6134C26.1289 12.9607 25.6192 14.5302 24.8619 16.1337C24.0997 17.7475 23.0635 19.4432 21.9606 21.0564C19.7543 24.2834 17.2531 27.2201 16.0629 28.5713C15.4966 29.2142 14.5031 29.2142 13.9369 28.5713C12.7466 27.22 10.2455 24.2834 8.0392 21.0564C6.93626 19.4432 5.90004 17.7474 5.13787 16.1337C4.38053 14.5302 3.87085 12.9607 3.87085 11.6134ZM14.9999 1.45212C9.38796 1.45212 4.83859 6.00148 4.83859 11.6134C4.83859 12.7459 5.27583 14.1598 6.01293 15.7204C6.7452 17.2709 7.75094 18.9202 8.83807 20.5102C11.0119 23.6898 13.4834 26.5925 14.6631 27.9317C14.844 28.1371 15.1558 28.1371 15.3367 27.9317C16.5163 26.5925 18.9878 23.6898 21.1617 20.5102C22.2488 18.9202 23.2546 17.2709 23.9868 15.7204C24.7239 14.1598 25.1612 12.7459 25.1612 11.6134C25.1612 6.00148 20.6118 1.45212 14.9999 1.45212Z" fill="#9E2424"/>
</g>
</g>
</svg>
