<svg width="31" height="31" viewBox="0 0 31 31" fill="none" xmlns="http://www.w3.org/2000/svg">
<g id="Frame 86">
<g id="Union">
<path d="M2.5 15C2.5 8.64873 7.64873 3.5 14 3.5C20.3513 3.5 25.5 8.64873 25.5 15C25.5 15.2761 25.7239 15.5 26 15.5C26.2761 15.5 26.5 15.2761 26.5 15C26.5 8.09644 20.9036 2.5 14 2.5C7.09644 2.5 1.5 8.09644 1.5 15C1.5 21.9036 7.09644 27.5 14 27.5C14.2761 27.5 14.5 27.2761 14.5 27C14.5 26.7239 14.2761 26.5 14 26.5C7.64873 26.5 2.5 21.3513 2.5 15Z" fill="#9E2424"/>
<path d="M14.5 8C14.5 7.72386 14.2761 7.5 14 7.5C13.7239 7.5 13.5 7.72386 13.5 8V14.5H5.5C5.22386 14.5 5 14.7239 5 15C5 15.2761 5.22386 15.5 5.5 15.5H14C14.2761 15.5 14.5 15.2761 14.5 15V8Z" fill="#9E2424"/>
<path fill-rule="evenodd" clip-rule="evenodd" d="M16.6551 20.9921C17.281 20.6791 18.1108 20.5 19 20.5C19.8892 20.5 20.719 20.6791 21.3449 20.9921C21.941 21.2901 22.5 21.7944 22.5 22.5C22.5 23.2056 21.941 23.7099 21.3449 24.0079C20.719 24.3209 19.8892 24.5 19 24.5C18.1108 24.5 17.281 24.3209 16.6551 24.0079C16.059 23.7099 15.5 23.2056 15.5 22.5C15.5 21.7944 16.059 21.2901 16.6551 20.9921ZM17.1023 21.8866C16.6125 22.1314 16.5 22.3772 16.5 22.5C16.5 22.6228 16.6125 22.8686 17.1023 23.1134C17.5621 23.3434 18.2324 23.5 19 23.5C19.7676 23.5 20.4379 23.3434 20.8977 23.1134C21.3875 22.8686 21.5 22.6228 21.5 22.5C21.5 22.3772 21.3875 22.1314 20.8977 21.8866C20.4379 21.6566 19.7676 21.5 19 21.5C18.2324 21.5 17.5621 21.6566 17.1023 21.8866Z" fill="#9E2424"/>
<path d="M16 25C16.2761 25 16.5 25.2239 16.5 25.5C16.5 25.6228 16.6125 25.8686 17.1023 26.1134C17.5621 26.3434 18.2324 26.5 19 26.5C19.7676 26.5 20.4379 26.3434 20.8977 26.1134C21.3875 25.8686 21.5 25.6228 21.5 25.5C21.5 25.2239 21.7239 25 22 25C22.2761 25 22.5 25.2239 22.5 25.5C22.5 26.2056 21.941 26.7099 21.3449 27.0079C20.719 27.3209 19.8892 27.5 19 27.5C18.1108 27.5 17.281 27.3209 16.6551 27.0079C16.059 26.7099 15.5 26.2056 15.5 25.5C15.5 25.2239 15.7239 25 16 25Z" fill="#9E2424"/>
<path d="M16 28C16.2761 28 16.5 28.2239 16.5 28.5C16.5 28.6228 16.6125 28.8686 17.1023 29.1134C17.5621 29.3434 18.2324 29.5 19 29.5C19.7676 29.5 20.4379 29.3434 20.8977 29.1134C21.3875 28.8686 21.5 28.6228 21.5 28.5C21.5 28.2239 21.7239 28 22 28C22.2761 28 22.5 28.2239 22.5 28.5C22.5 29.2056 21.941 29.7099 21.3449 30.0079C20.719 30.3209 19.8892 30.5 19 30.5C18.1108 30.5 17.281 30.3209 16.6551 30.0079C16.059 29.7099 15.5 29.2056 15.5 28.5C15.5 28.2239 15.7239 28 16 28Z" fill="#9E2424"/>
<path fill-rule="evenodd" clip-rule="evenodd" d="M24.6551 16.9921C25.281 16.6791 26.1108 16.5 27 16.5C27.8892 16.5 28.719 16.6791 29.3449 16.9921C29.941 17.2901 30.5 17.7944 30.5 18.5C30.5 19.2056 29.941 19.7099 29.3449 20.0079C28.719 20.3209 27.8892 20.5 27 20.5C26.1108 20.5 25.281 20.3209 24.6551 20.0079C24.059 19.7099 23.5 19.2056 23.5 18.5C23.5 17.7944 24.059 17.2901 24.6551 16.9921ZM25.1023 17.8866C24.6125 18.1314 24.5 18.3772 24.5 18.5C24.5 18.6228 24.6125 18.8686 25.1023 19.1134C25.5621 19.3434 26.2324 19.5 27 19.5C27.7676 19.5 28.4379 19.3434 28.8977 19.1134C29.3875 18.8686 29.5 18.6228 29.5 18.5C29.5 18.3772 29.3875 18.1314 28.8977 17.8866C28.4379 17.6566 27.7676 17.5 27 17.5C26.2324 17.5 25.5621 17.6566 25.1023 17.8866Z" fill="#9E2424"/>
<path d="M24 21C24.2761 21 24.5 21.2239 24.5 21.5C24.5 21.6228 24.6125 21.8686 25.1023 22.1134C25.5621 22.3434 26.2324 22.5 27 22.5C27.7676 22.5 28.4379 22.3434 28.8977 22.1134C29.3875 21.8686 29.5 21.6228 29.5 21.5C29.5 21.2239 29.7239 21 30 21C30.2761 21 30.5 21.2239 30.5 21.5C30.5 22.2056 29.941 22.7099 29.3449 23.0079C28.719 23.3209 27.8892 23.5 27 23.5C26.1108 23.5 25.281 23.3209 24.6551 23.0079C24.059 22.7099 23.5 22.2056 23.5 21.5C23.5 21.2239 23.7239 21 24 21Z" fill="#9E2424"/>
<path d="M24 24C24.2761 24 24.5 24.2239 24.5 24.5C24.5 24.6228 24.6125 24.8686 25.1023 25.1134C25.5621 25.3434 26.2324 25.5 27 25.5C27.7676 25.5 28.4379 25.3434 28.8977 25.1134C29.3875 24.8686 29.5 24.6228 29.5 24.5C29.5 24.2239 29.7239 24 30 24C30.2761 24 30.5 24.2239 30.5 24.5C30.5 25.2056 29.941 25.7099 29.3449 26.0079C28.719 26.3209 27.8892 26.5 27 26.5C26.1108 26.5 25.281 26.3209 24.6551 26.0079C24.059 25.7099 23.5 25.2056 23.5 24.5C23.5 24.2239 23.7239 24 24 24Z" fill="#9E2424"/>
</g>
</g>
</svg>
