<svg width="41" height="40" viewBox="0 0 41 40" fill="none" xmlns="http://www.w3.org/2000/svg">
<g id="Frame">
<g id="Union">
<path fill-rule="evenodd" clip-rule="evenodd" d="M9.34293 9.2853C9.34293 7.31285 10.9846 5.71387 13.0096 5.71387H37.1048C39.1299 5.71387 40.7715 7.31285 40.7715 9.2853V12.8567H9.34293V9.2853ZM13.0096 6.73428C11.5631 6.73428 10.3905 7.87641 10.3905 9.2853V11.8363H39.7239V9.2853C39.7239 7.87641 38.5513 6.73428 37.1048 6.73428H13.0096Z" fill="#F5F5F5"/>
<path d="M30.2953 23.571C30.2953 23.2892 30.5298 23.0608 30.8191 23.0608H35.0096C35.2989 23.0608 35.5334 23.2892 35.5334 23.571C35.5334 23.8528 35.2989 24.0812 35.0096 24.0812H30.8191C30.5298 24.0812 30.2953 23.8528 30.2953 23.571Z" fill="#F5F5F5"/>
<path d="M40.7715 14.8975H9.34293V17.261C9.70011 17.3209 10.0498 17.4029 10.3905 17.5055V15.9179H39.7239V23.571C39.7239 24.9799 38.5513 26.122 37.1048 26.122H16.4762C16.46 26.4679 16.4233 26.8085 16.3673 27.1424H37.1048C39.1299 27.1424 40.7715 25.5435 40.7715 23.571V14.8975Z" fill="#F5F5F5"/>
<path d="M11.2072 24.655C11.4114 24.4144 11.3818 24.0538 11.1412 23.8496C10.9006 23.6454 10.54 23.675 10.3358 23.9156L7.13514 27.6878L5.49294 25.7523C5.28875 25.5117 4.92816 25.4821 4.68751 25.6863C4.44687 25.8905 4.41732 26.2511 4.6215 26.4917L6.69942 28.9407C6.80799 29.0687 6.96732 29.1424 7.13514 29.1424C7.30295 29.1424 7.46229 29.0687 7.57086 28.9407L11.2072 24.655Z" fill="#F5F5F5"/>
<path fill-rule="evenodd" clip-rule="evenodd" d="M0.200073 25.7139C0.200073 21.4534 3.65388 17.9996 7.91436 17.9996C12.1748 17.9996 15.6286 21.4534 15.6286 25.7139C15.6286 29.9743 12.1748 33.4282 7.91436 33.4282C3.65388 33.4282 0.200073 29.9743 0.200073 25.7139ZM7.91436 19.1424C4.28506 19.1424 1.34293 22.0846 1.34293 25.7139C1.34293 29.3432 4.28506 32.2853 7.91436 32.2853C11.5437 32.2853 14.4858 29.3432 14.4858 25.7139C14.4858 22.0846 11.5437 19.1424 7.91436 19.1424Z" fill="#F5F5F5"/>
</g>
</g>
</svg>
