<svg width="30" height="30" viewBox="0 0 30 30" fill="none" xmlns="http://www.w3.org/2000/svg">
<g id="Union">
<g id="Union_2">
<path d="M21.8557 11.0135C22.0678 10.7595 22.0432 10.3735 21.8008 10.1512C21.5583 9.92896 21.1898 9.9547 20.9777 10.2087L13.2216 19.4949L8.99581 15.0679C8.76801 14.8292 8.39866 14.8292 8.17085 15.0679C7.94305 15.3065 7.94305 15.6935 8.17085 15.9321L12.8375 20.821C12.9517 20.9406 13.108 21.0053 13.2694 20.9997C13.4308 20.994 13.5827 20.9186 13.689 20.7913L21.8557 11.0135Z" fill="#9E2424"/>
<path fill-rule="evenodd" clip-rule="evenodd" d="M30 15C30 23.2843 23.2843 30 15 30C6.71573 30 0 23.2843 0 15C0 6.71573 6.71573 0 15 0C23.2843 0 30 6.71573 30 15ZM29 15C29 22.732 22.732 29 15 29C7.26801 29 1 22.732 1 15C1 7.26801 7.26801 1 15 1C22.732 1 29 7.26801 29 15Z" fill="#9E2424"/>
</g>
</g>
</svg>
