<svg width="40" height="40" viewBox="0 0 40 40" fill="none" xmlns="http://www.w3.org/2000/svg">
<g id="Frame">
<g id="Union">
<path d="M6 10.667C5.63181 10.667 5.33333 10.9655 5.33333 11.3337C5.33333 11.7018 5.63181 12.0003 6 12.0003H34C34.3682 12.0003 34.6667 11.7018 34.6667 11.3337C34.6667 10.9655 34.3682 10.667 34 10.667H6Z" fill="#F5F5F5"/>
<path d="M5.33333 16.667C5.33333 16.2988 5.63181 16.0003 6 16.0003H34C34.3682 16.0003 34.6667 16.2988 34.6667 16.667C34.6667 17.0352 34.3682 17.3337 34 17.3337H6C5.63181 17.3337 5.33333 17.0352 5.33333 16.667Z" fill="#F5F5F5"/>
<path d="M6 21.3337C5.63181 21.3337 5.33333 21.6321 5.33333 22.0003C5.33333 22.3685 5.63181 22.667 6 22.667H28.6667C29.0349 22.667 29.3333 22.3685 29.3333 22.0003C29.3333 21.6321 29.0349 21.3337 28.6667 21.3337H6Z" fill="#F5F5F5"/>
<path fill-rule="evenodd" clip-rule="evenodd" d="M4.66667 2.66699C2.08934 2.66699 0 4.75633 0 7.33366V26.0003C0 28.5777 2.08934 30.667 4.66667 30.667H6V37.3337C6 37.5932 6.15068 37.8292 6.38617 37.9384C6.62166 38.0477 6.89913 38.0103 7.0973 37.8426L14.6454 31.4557C15.2473 30.9464 16.0102 30.667 16.7986 30.667H35.3333C37.9107 30.667 40 28.5777 40 26.0003V7.33366C40 4.75633 37.9107 2.66699 35.3333 2.66699H4.66667ZM1.33333 7.33366C1.33333 5.49271 2.82572 4.00033 4.66667 4.00033H35.3333C37.1743 4.00033 38.6667 5.49271 38.6667 7.33366V26.0003C38.6667 27.8413 37.1743 29.3337 35.3333 29.3337H16.7986C15.6948 29.3337 14.6268 29.7249 13.7842 30.4379L7.33333 35.8963V30.0003C7.33333 29.6321 7.03486 29.3337 6.66667 29.3337H4.66667C2.82572 29.3337 1.33333 27.8413 1.33333 26.0003V7.33366Z" fill="#F5F5F5"/>
</g>
</g>
</svg>
