<svg width="30" height="30" viewBox="0 0 30 30" fill="none" xmlns="http://www.w3.org/2000/svg">
<g id="Frame 48">
<g id="Union">
<path fill-rule="evenodd" clip-rule="evenodd" d="M0 3.87059C0 3.60336 0.216636 3.38672 0.483871 3.38672H16.4516C17.2533 3.38672 17.9032 4.03663 17.9032 4.83833V8.7093H24.1239C24.6383 8.7093 25.1143 8.98154 25.3751 9.42492L29.7996 16.9465C29.9308 17.1696 30 17.4237 30 17.6825V21.7738C30 22.5755 29.3501 23.2254 28.5484 23.2254H24.1452C23.921 24.3297 22.9447 25.1609 21.7742 25.1609C20.6037 25.1609 19.6274 24.3297 19.4032 23.2254H10.5968C10.3726 24.3297 9.39627 25.1609 8.22581 25.1609C7.05534 25.1609 6.07901 24.3297 5.85485 23.2254H3.3871C2.58539 23.2254 1.93548 22.5755 1.93548 21.7738V14.0319C1.93548 13.7646 2.15212 13.548 2.41935 13.548C2.68659 13.548 2.90323 13.7646 2.90323 14.0319V21.7738C2.90323 22.041 3.11986 22.2577 3.3871 22.2577H5.85485C6.07901 21.1534 7.05534 20.3222 8.22581 20.3222C9.39627 20.3222 10.3726 21.1534 10.5968 22.2577H16.9355V4.83833C16.9355 4.5711 16.7188 4.35446 16.4516 4.35446H0.483871C0.216636 4.35446 0 4.13782 0 3.87059ZM17.9032 22.2577H19.4032C19.6274 21.1534 20.6037 20.3222 21.7742 20.3222C22.9447 20.3222 23.921 21.1534 24.1452 22.2577H28.5484C28.8156 22.2577 29.0323 22.041 29.0323 21.7738V17.6825C29.0323 17.5962 29.0092 17.5115 28.9655 17.4372L24.541 9.91558C24.4541 9.76779 24.2954 9.67704 24.1239 9.67704H17.9032V22.2577ZM8.22581 21.2899C7.4241 21.2899 6.77419 21.9399 6.77419 22.7416C6.77419 23.5433 7.4241 24.1932 8.22581 24.1932C9.02751 24.1932 9.67742 23.5433 9.67742 22.7416C9.67742 21.9399 9.02751 21.2899 8.22581 21.2899ZM21.7742 21.2899C20.9725 21.2899 20.3226 21.9399 20.3226 22.7416C20.3226 23.5433 20.9725 24.1932 21.7742 24.1932C22.5759 24.1932 23.2258 23.5433 23.2258 22.7416C23.2258 21.9399 22.5759 21.2899 21.7742 21.2899Z" fill="#9E2424"/>
<path d="M0.967742 8.22543C0.967742 7.95819 1.18438 7.74156 1.45161 7.74156H6.29032C6.55756 7.74156 6.77419 7.95819 6.77419 8.22543C6.77419 8.49266 6.55756 8.7093 6.29032 8.7093H1.45161C1.18438 8.7093 0.967742 8.49266 0.967742 8.22543Z" fill="#9E2424"/>
</g>
</g>
</svg>
