<svg width="30" height="30" viewBox="0 0 30 30" fill="none" xmlns="http://www.w3.org/2000/svg">
<g id="Frame 193">
<g id="Union">
<path d="M4.5 8C4.22386 8 4 8.22386 4 8.5C4 8.77614 4.22386 9 4.5 9H25.5C25.7761 9 26 8.77614 26 8.5C26 8.22386 25.7761 8 25.5 8H4.5Z" fill="#9E2424"/>
<path d="M4 12.5C4 12.2239 4.22386 12 4.5 12H25.5C25.7761 12 26 12.2239 26 12.5C26 12.7761 25.7761 13 25.5 13H4.5C4.22386 13 4 12.7761 4 12.5Z" fill="#9E2424"/>
<path d="M4.5 16C4.22386 16 4 16.2239 4 16.5C4 16.7761 4.22386 17 4.5 17H21.5C21.7761 17 22 16.7761 22 16.5C22 16.2239 21.7761 16 21.5 16H4.5Z" fill="#9E2424"/>
<path fill-rule="evenodd" clip-rule="evenodd" d="M3.5 2C1.567 2 0 3.567 0 5.5V19.5C0 21.433 1.567 23 3.5 23H4.5V28C4.5 28.1947 4.61301 28.3717 4.78963 28.4536C4.96624 28.5355 5.17435 28.5075 5.32297 28.3817L10.9841 23.5915C11.4355 23.2096 12.0076 23 12.5989 23H26.5C28.433 23 30 21.433 30 19.5V5.5C30 3.567 28.433 2 26.5 2H3.5ZM1 5.5C1 4.11929 2.11929 3 3.5 3H26.5C27.8807 3 29 4.11929 29 5.5V19.5C29 20.8807 27.8807 22 26.5 22H12.5989C11.7711 22 10.9701 22.2934 10.3381 22.8281L5.5 26.9219V22.5C5.5 22.2239 5.27614 22 5 22H3.5C2.11929 22 1 20.8807 1 19.5V5.5Z" fill="#9E2424"/>
</g>
</g>
</svg>
