<svg width="45" height="45" viewBox="0 0 45 45" fill="none" xmlns="http://www.w3.org/2000/svg">
<g id="uil:telegram">
<path id="Vector" d="M23.7388 3.75C19.7831 3.75 15.9164 4.92298 12.6274 7.12061C9.33839 9.31823 6.77494 12.4418 5.26119 16.0963C3.74744 19.7509 3.35137 23.7722 4.12307 27.6518C4.89478 31.5314 6.79959 35.0951 9.59664 37.8921C12.3937 40.6892 15.9573 42.594 19.837 43.3657C23.7166 44.1374 27.7379 43.7413 31.3924 42.2276C35.047 40.7138 38.1705 38.1504 40.3682 34.8614C42.5658 31.5724 43.7388 27.7056 43.7388 23.75C43.7388 21.1236 43.2215 18.5228 42.2164 16.0963C41.2113 13.6698 39.7381 11.465 37.8809 9.60786C36.0237 7.75069 33.819 6.2775 31.3924 5.27241C28.9659 4.26732 26.3652 3.75 23.7388 3.75ZM30.0988 34.054C30.0241 34.2408 29.9104 34.4095 29.7651 34.5488C29.6199 34.688 29.4465 34.7946 29.2567 34.8613C29.0669 34.9279 28.865 34.9532 28.6646 34.9354C28.4641 34.9176 28.2699 34.8571 28.0948 34.758L22.6648 30.538L19.1808 33.754C19.0999 33.8137 19.0053 33.8521 18.9057 33.8658C18.8061 33.8794 18.7047 33.8678 18.6108 33.832L19.2788 27.854L19.2988 27.872L19.3128 27.754C19.3128 27.754 29.0828 18.858 29.4808 18.48C29.8848 18.102 29.7508 18.02 29.7508 18.02C29.7748 17.56 29.0288 18.02 29.0288 18.02L16.0828 26.348L10.6928 24.512C10.6928 24.512 9.86478 24.216 9.78678 23.562C9.70478 22.914 10.7188 22.562 10.7188 22.562L32.1528 14.046C32.1528 14.046 33.9148 13.262 33.9148 14.562L30.0988 34.054Z" fill="#25A2E0"/>
</g>
</svg>
