<svg width="30" height="30" viewBox="0 0 30 30" fill="none" xmlns="http://www.w3.org/2000/svg">
<g id="Frame 211">
<g id="Union">
<path d="M15.4839 9.19355C15.4839 8.92631 15.2672 8.70968 15 8.70968C14.7328 8.70968 14.5161 8.92631 14.5161 9.19355V15H6.77419C6.50696 15 6.29032 15.2166 6.29032 15.4839C6.29032 15.7511 6.50696 15.9677 6.77419 15.9677H15C15.2672 15.9677 15.4839 15.7511 15.4839 15.4839V9.19355Z" fill="#9E2424"/>
<path d="M23.7097 20.8065C24.7786 20.8065 25.6452 19.9399 25.6452 18.871C25.6452 17.802 24.7786 16.9355 23.7097 16.9355C22.6407 16.9355 21.7742 17.802 21.7742 18.871C21.7742 19.9399 22.6407 20.8065 23.7097 20.8065Z" fill="#9E2424"/>
<path fill-rule="evenodd" clip-rule="evenodd" d="M29.5039 18.4918C29.512 18.6171 29.5161 18.7436 29.5161 18.871C29.5161 21.3593 26.02 26.3955 24.4534 28.5273C24.0806 29.0347 23.3388 29.0347 22.9659 28.5273C22.8403 28.3564 22.7023 28.1668 22.5547 27.9614C20.3358 29.2574 17.754 30 15 30C6.71573 30 0 23.2843 0 15C0 6.71573 6.71573 0 15 0C23.2843 0 30 6.71573 30 15C30 16.1446 29.729 17.4777 29.5039 18.4918ZM0.967742 15C0.967742 7.2502 7.2502 0.967742 15 0.967742C22.7498 0.967742 29.0323 7.2502 29.0323 15C29.0323 15.4157 28.9918 15.8662 28.9286 16.3229C27.9848 14.3934 26.0024 13.0645 23.7097 13.0645C20.5029 13.0645 17.9032 15.6642 17.9032 18.871C17.9032 20.9232 20.2812 24.7084 21.9936 27.1681C19.9351 28.3539 17.5474 29.0323 15 29.0323C7.2502 29.0323 0.967742 22.7498 0.967742 15ZM28.0505 20.7613C28.3884 19.9409 28.5484 19.3009 28.5484 18.871C28.5484 16.1986 26.382 14.0323 23.7097 14.0323C21.0373 14.0323 18.871 16.1986 18.871 18.871C18.871 19.3009 19.031 19.9409 19.3688 20.7613C19.6981 21.5608 20.1606 22.4484 20.6833 23.3457C21.712 25.1117 22.9327 26.8456 23.7097 27.9051C24.4867 26.8456 25.7073 25.1117 26.736 23.3457C27.2588 22.4484 27.7213 21.5608 28.0505 20.7613Z" fill="#9E2424"/>
</g>
</g>
</svg>
