<svg width="50" height="50" viewBox="0 0 50 50" fill="none" xmlns="http://www.w3.org/2000/svg">
<g id="entypo-social:vk-with-circle">
<path id="Vector" d="M25.5552 3.33203C13.2821 3.33203 3.33301 13.2811 3.33301 25.5543C3.33301 37.8274 13.2821 47.7765 25.5552 47.7765C37.8284 47.7765 47.7775 37.8274 47.7775 25.5543C47.7775 13.2811 37.8284 3.33203 25.5552 3.33203ZM34.1015 28.4038C34.1015 28.4038 36.0668 30.3436 36.5506 31.2441C36.5645 31.2626 36.5714 31.2811 36.5761 31.2904C36.7728 31.6214 36.8191 31.8783 36.7219 32.0705C36.5599 32.3899 36.0043 32.5473 35.8145 32.5612H32.3423C32.1015 32.5612 31.5969 32.4987 30.9858 32.0774C30.5159 31.7487 30.0529 31.2093 29.6015 30.6839C28.9279 29.9015 28.3446 29.2255 27.7566 29.2255C27.6819 29.2254 27.6077 29.2371 27.5367 29.2603C27.0923 29.4038 26.5228 30.038 26.5228 31.7279C26.5228 32.2556 26.1062 32.5589 25.8122 32.5589H24.2219C23.6802 32.5589 20.8585 32.3691 18.3585 29.7325C15.2983 26.5033 12.5437 20.0265 12.5205 19.9663C12.3469 19.5473 12.7057 19.3228 13.0969 19.3228H16.6038C17.0714 19.3228 17.2242 19.6075 17.3307 19.8598C17.4557 20.1538 17.914 21.3228 18.6663 22.6376C19.8862 24.7811 20.6339 25.6515 21.2335 25.6515C21.3459 25.6502 21.4563 25.6216 21.5552 25.5681C22.3376 25.133 22.1918 22.3436 22.1571 21.7649C22.1571 21.6561 22.1548 20.5172 21.7543 19.9709C21.4673 19.5751 20.9788 19.4246 20.6825 19.3691C20.8025 19.2036 20.9605 19.0694 21.1432 18.9779C21.6802 18.7093 22.6478 18.67 23.6085 18.67H24.1432C25.1849 18.6839 25.4534 18.751 25.8307 18.8459C26.5946 19.0288 26.6108 19.5218 26.5437 21.2093C26.5228 21.6885 26.502 22.2302 26.502 22.8691C26.502 23.008 26.495 23.1561 26.495 23.3135C26.4719 24.1723 26.4441 25.1468 27.0506 25.5473C27.1297 25.5969 27.2211 25.6234 27.3145 25.6237C27.5251 25.6237 28.1594 25.6237 29.877 22.6769C30.4067 21.7285 30.867 20.7429 31.2543 19.7279C31.289 19.6677 31.3909 19.4825 31.5112 19.4107C31.6001 19.3654 31.6986 19.3424 31.7983 19.3436H35.921C36.37 19.3436 36.6779 19.4107 36.7358 19.5843C36.8376 19.8598 36.7173 20.7001 34.8353 23.2487L33.995 24.3575C32.289 26.5936 32.289 26.707 34.1015 28.4038Z" fill="#4C75A3"/>
</g>
</svg>
