<svg width="45" height="45" viewBox="0 0 45 45" fill="none" xmlns="http://www.w3.org/2000/svg">
<g id="dashicons:whatsapp">
<path id="Vector" d="M41.4092 13.7243C35.4257 4.4997 23.2093 1.75725 13.7354 7.49145C4.51086 13.2257 1.51911 25.6913 7.50262 34.9159L8.00125 35.6638L6.00674 43.1432L13.4861 41.1487L14.2341 41.6473C17.4751 43.3925 20.9655 44.3898 24.4559 44.3898C28.1956 44.3898 31.9353 43.3925 35.1764 41.398C44.4009 35.4145 47.1434 23.1982 41.4092 13.7243ZM36.1736 32.9214C35.1764 34.4173 33.9298 35.4145 32.1846 35.6638C31.1874 35.6638 29.9408 36.1624 24.9545 34.1679C20.7162 32.1734 17.2258 28.9324 14.7327 25.1927C13.2368 23.4475 12.4889 21.2037 12.2396 18.9599C12.2396 16.9653 12.9875 15.2202 14.2341 13.9736C14.7327 13.475 15.2313 13.2257 15.7299 13.2257H16.9765C17.4751 13.2257 17.9738 13.2257 18.2231 14.2229C18.7217 15.4695 19.9683 18.4612 19.9683 18.7105C20.2176 18.9599 20.2176 19.4585 19.9683 19.7078C20.2176 20.2064 19.9683 20.705 19.719 20.9544C19.4696 21.2037 19.2203 21.7023 18.971 21.9516C18.4724 22.2009 18.2231 22.6995 18.4724 23.1982C19.4696 24.694 20.7162 26.1899 21.9628 27.4365C23.4587 28.6831 24.9545 29.6803 26.6997 30.4282C27.1983 30.6776 27.697 30.6776 27.9463 30.1789C28.1956 29.6803 29.4422 28.4337 29.9408 27.9351C30.4394 27.4365 30.6887 27.4365 31.1874 27.6858L35.1764 29.6803C35.675 29.9296 36.1736 30.1789 36.4229 30.4282C36.6722 31.1762 36.6722 32.1734 36.1736 32.9214Z" fill="url(#paint0_linear_146_1466)"/>
</g>
<defs>
<linearGradient id="paint0_linear_146_1466" x1="24.4006" y1="4.5" x2="24.4006" y2="44.3898" gradientUnits="userSpaceOnUse">
<stop stop-color="#01C03F"/>
<stop offset="1" stop-color="#018C33"/>
</linearGradient>
</defs>
</svg>
