<svg width="40" height="40" viewBox="0 0 40 40" fill="none" xmlns="http://www.w3.org/2000/svg">
<g id="icon" clip-path="url(#clip0_73_7089)">
<g id="Union">
<path fill-rule="evenodd" clip-rule="evenodd" d="M7.33333 11.3501V14.6664C7.33333 15.0346 7.03486 15.3331 6.66667 15.3331C6.29848 15.3331 6 15.0346 6 14.6664V5.33307C6 4.96488 6.29848 4.6664 6.66667 4.6664C6.90091 4.6664 7.15862 4.65661 7.44243 4.64484L7.52205 4.64152C7.77909 4.63079 8.05427 4.61929 8.33206 4.61442C8.94081 4.60374 9.61054 4.62311 10.2332 4.76681C10.8607 4.9116 11.4896 5.19403 11.9568 5.74619C12.4283 6.30335 12.6667 7.05397 12.6667 7.99973C12.6667 8.9455 12.4283 9.69612 11.9568 10.2533C11.4896 10.8054 10.8607 11.0879 10.2332 11.2326C9.61053 11.3763 8.9408 11.3957 8.33205 11.385C8.05429 11.3801 7.77912 11.3686 7.5221 11.3579L7.33333 11.3501ZM7.33333 10.0157V5.98369L7.49768 5.97703L7.5763 5.97375C7.83566 5.96293 8.09474 5.95212 8.35544 5.94755C8.93419 5.9374 9.47279 5.95969 9.93343 6.066C10.3893 6.17121 10.7187 6.34711 10.939 6.60745C11.1551 6.86279 11.3333 7.27884 11.3333 7.99973C11.3333 8.72063 11.1551 9.13668 10.939 9.39201C10.7187 9.65234 10.3893 9.82824 9.93344 9.93344C9.4728 10.0397 8.9342 10.062 8.35545 10.0519C8.09477 10.0473 7.83577 10.0365 7.57644 10.0257L7.49768 10.0224L7.33333 10.0157Z" fill="#9E2424"/>
<path fill-rule="evenodd" clip-rule="evenodd" d="M17.3081 10.6663C17.3248 10.4463 17.3333 10.224 17.3333 9.99967C17.3333 5.21321 13.4531 1.33301 8.66667 1.33301C3.8802 1.33301 0 5.21321 0 9.99967C0 12.4575 1.02311 14.6763 2.66667 16.2536V34.3108C2.66667 35.3417 3.50034 36.1775 4.52874 36.1775H7.69426C7.98181 37.5975 9.23421 38.6663 10.7356 38.6663C12.2371 38.6663 13.4895 37.5975 13.777 36.1775H25.0736C25.3611 37.5975 26.6135 38.6663 28.1149 38.6663C29.6164 38.6663 30.8688 37.5975 31.1563 36.1775H36.8046C37.833 36.1775 38.6667 35.3417 38.6667 34.3108V29.0497C38.6667 28.7168 38.5779 28.3901 38.4096 28.1032L32.7341 18.431C32.3995 17.8609 31.7889 17.5108 31.1291 17.5108H23.1494V12.533C23.1494 11.5021 22.3157 10.6663 21.2874 10.6663H17.3081ZM16 9.99967C16 14.0498 12.7168 17.333 8.66667 17.333C4.61658 17.333 1.33333 14.0498 1.33333 9.99967C1.33333 5.94959 4.61658 2.66634 8.66667 2.66634C12.7168 2.66634 16 5.94959 16 9.99967ZM17.1219 11.9108C16.2516 15.7778 12.7965 18.6663 8.66667 18.6663C6.90921 18.6663 5.27393 18.1432 3.90805 17.2442V34.3108C3.90805 34.6544 4.18594 34.933 4.52874 34.933H7.69426C7.98181 33.5129 9.23421 32.4441 10.7356 32.4441C12.2371 32.4441 13.4895 33.5129 13.777 34.933H21.908V12.533C21.908 12.1894 21.6302 11.9108 21.2874 11.9108H17.1219ZM25.0736 34.933H23.1494V18.7552H31.1291C31.349 18.7552 31.5526 18.8719 31.6641 19.062L37.3396 28.7342C37.3957 28.8298 37.4253 28.9387 37.4253 29.0497V34.3108C37.4253 34.6544 37.1474 34.933 36.8046 34.933H31.1563C30.8688 33.5129 29.6164 32.4441 28.1149 32.4441C26.6135 32.4441 25.3611 33.5129 25.0736 34.933ZM8.87356 35.5552C8.87356 34.5243 9.70724 33.6886 10.7356 33.6886C11.764 33.6886 12.5977 34.5243 12.5977 35.5552C12.5977 36.5862 11.764 37.4219 10.7356 37.4219C9.70724 37.4219 8.87356 36.5862 8.87356 35.5552ZM26.2529 35.5552C26.2529 34.5243 27.0866 33.6886 28.1149 33.6886C29.1433 33.6886 29.977 34.5243 29.977 35.5552C29.977 36.5862 29.1433 37.4219 28.1149 37.4219C27.0866 37.4219 26.2529 36.5862 26.2529 35.5552Z" fill="#9E2424"/>
<path fill-rule="evenodd" clip-rule="evenodd" d="M7.33333 11.3501V14.6664C7.33333 15.0346 7.03486 15.3331 6.66667 15.3331C6.29848 15.3331 6 15.0346 6 14.6664V5.33307C6 4.96488 6.29848 4.6664 6.66667 4.6664C6.90091 4.6664 7.15862 4.65661 7.44243 4.64484L7.52205 4.64152C7.77909 4.63079 8.05427 4.61929 8.33206 4.61442C8.94081 4.60374 9.61054 4.62311 10.2332 4.76681C10.8607 4.9116 11.4896 5.19403 11.9568 5.74619C12.4283 6.30335 12.6667 7.05397 12.6667 7.99973C12.6667 8.9455 12.4283 9.69612 11.9568 10.2533C11.4896 10.8054 10.8607 11.0879 10.2332 11.2326C9.61053 11.3763 8.9408 11.3957 8.33205 11.385C8.05429 11.3801 7.77912 11.3686 7.5221 11.3579L7.33333 11.3501ZM7.33333 10.0157V5.98369L7.49768 5.97703L7.5763 5.97375C7.83566 5.96293 8.09474 5.95212 8.35544 5.94755C8.93419 5.9374 9.47279 5.95969 9.93343 6.066C10.3893 6.17121 10.7187 6.34711 10.939 6.60745C11.1551 6.86279 11.3333 7.27884 11.3333 7.99973C11.3333 8.72063 11.1551 9.13668 10.939 9.39201C10.7187 9.65234 10.3893 9.82824 9.93344 9.93344C9.4728 10.0397 8.9342 10.062 8.35545 10.0519C8.09477 10.0473 7.83577 10.0365 7.57644 10.0257L7.49768 10.0224L7.33333 10.0157Z" stroke="#9E2424" stroke-linecap="round" stroke-linejoin="round"/>
<path fill-rule="evenodd" clip-rule="evenodd" d="M17.3081 10.6663C17.3248 10.4463 17.3333 10.224 17.3333 9.99967C17.3333 5.21321 13.4531 1.33301 8.66667 1.33301C3.8802 1.33301 0 5.21321 0 9.99967C0 12.4575 1.02311 14.6763 2.66667 16.2536V34.3108C2.66667 35.3417 3.50034 36.1775 4.52874 36.1775H7.69426C7.98181 37.5975 9.23421 38.6663 10.7356 38.6663C12.2371 38.6663 13.4895 37.5975 13.777 36.1775H25.0736C25.3611 37.5975 26.6135 38.6663 28.1149 38.6663C29.6164 38.6663 30.8688 37.5975 31.1563 36.1775H36.8046C37.833 36.1775 38.6667 35.3417 38.6667 34.3108V29.0497C38.6667 28.7168 38.5779 28.3901 38.4096 28.1032L32.7341 18.431C32.3995 17.8609 31.7889 17.5108 31.1291 17.5108H23.1494V12.533C23.1494 11.5021 22.3157 10.6663 21.2874 10.6663H17.3081ZM16 9.99967C16 14.0498 12.7168 17.333 8.66667 17.333C4.61658 17.333 1.33333 14.0498 1.33333 9.99967C1.33333 5.94959 4.61658 2.66634 8.66667 2.66634C12.7168 2.66634 16 5.94959 16 9.99967ZM17.1219 11.9108C16.2516 15.7778 12.7965 18.6663 8.66667 18.6663C6.90921 18.6663 5.27393 18.1432 3.90805 17.2442V34.3108C3.90805 34.6544 4.18594 34.933 4.52874 34.933H7.69426C7.98181 33.5129 9.23421 32.4441 10.7356 32.4441C12.2371 32.4441 13.4895 33.5129 13.777 34.933H21.908V12.533C21.908 12.1894 21.6302 11.9108 21.2874 11.9108H17.1219ZM25.0736 34.933H23.1494V18.7552H31.1291C31.349 18.7552 31.5526 18.8719 31.6641 19.062L37.3396 28.7342C37.3957 28.8298 37.4253 28.9387 37.4253 29.0497V34.3108C37.4253 34.6544 37.1474 34.933 36.8046 34.933H31.1563C30.8688 33.5129 29.6164 32.4441 28.1149 32.4441C26.6135 32.4441 25.3611 33.5129 25.0736 34.933ZM8.87356 35.5552C8.87356 34.5243 9.70724 33.6886 10.7356 33.6886C11.764 33.6886 12.5977 34.5243 12.5977 35.5552C12.5977 36.5862 11.764 37.4219 10.7356 37.4219C9.70724 37.4219 8.87356 36.5862 8.87356 35.5552ZM26.2529 35.5552C26.2529 34.5243 27.0866 33.6886 28.1149 33.6886C29.1433 33.6886 29.977 34.5243 29.977 35.5552C29.977 36.5862 29.1433 37.4219 28.1149 37.4219C27.0866 37.4219 26.2529 36.5862 26.2529 35.5552Z" stroke="#9E2424" stroke-linecap="round" stroke-linejoin="round"/>
</g>
</g>
<defs>
<clipPath id="clip0_73_7089">
<rect width="40" height="40" fill="white"/>
</clipPath>
</defs>
</svg>
