<svg width="40" height="40" viewBox="0 0 40 40" fill="none" xmlns="http://www.w3.org/2000/svg">
<g id="icon">
<g id="Union">
<path fill-rule="evenodd" clip-rule="evenodd" d="M20.0001 8.26218C20.3564 8.26218 20.6452 8.55103 20.6452 8.90734V9.44147C23.4916 9.72811 25.8065 11.8881 25.8065 14.6421C25.8065 14.9984 25.5177 15.2873 25.1614 15.2873C24.8051 15.2873 24.5162 14.9984 24.5162 14.6421C24.5162 12.7145 22.8872 11.0156 20.6452 10.7388V18.6171C23.4916 18.9037 25.8065 21.0638 25.8065 23.8177C25.8065 26.5717 23.4916 28.7317 20.6452 29.0184V29.5525C20.6452 29.9088 20.3564 30.1977 20.0001 30.1977C19.6438 30.1977 19.3549 29.9088 19.3549 29.5525V29.0184C16.5085 28.7317 14.1936 26.5717 14.1936 23.8177C14.1936 23.4614 14.4825 23.1726 14.8388 23.1726C15.1951 23.1726 15.484 23.4614 15.484 23.8177C15.484 25.7453 17.113 27.4442 19.3549 27.721V19.8427C16.5085 19.5561 14.1936 17.3961 14.1936 14.6421C14.1936 11.8881 16.5085 9.72811 19.3549 9.44147V8.90734C19.3549 8.55103 19.6438 8.26218 20.0001 8.26218ZM19.3549 10.7388C17.113 11.0156 15.484 12.7145 15.484 14.6421C15.484 16.5697 17.113 18.2686 19.3549 18.5454V10.7388ZM20.6452 19.9145V27.721C22.8872 27.4442 24.5162 25.7453 24.5162 23.8177C24.5162 21.8901 22.8872 20.1913 20.6452 19.9145Z" fill="#9E2424"/>
<path fill-rule="evenodd" clip-rule="evenodd" d="M19.4132 0.675096C19.795 0.553614 20.2051 0.553614 20.5869 0.675096L33.4902 4.78067C34.2933 5.03623 34.8388 5.78218 34.8388 6.62504V19.2299C34.8388 25.8042 31.8865 30.5074 28.6507 33.6773C25.4246 36.8376 21.9013 38.4922 20.6788 39.0076C20.2392 39.193 19.7609 39.193 19.3214 39.0076C18.0989 38.4922 14.5756 36.8376 11.3495 33.6773C8.11369 30.5074 5.16138 25.8042 5.16138 19.2299V6.62503C5.16138 5.78216 5.70684 5.03622 6.51002 4.78067L19.4132 0.675096ZM20.1957 1.90468C20.0684 1.86418 19.9317 1.86418 19.8045 1.90468L6.90125 6.01025C6.63351 6.09544 6.4517 6.34408 6.4517 6.62503V19.2299C6.4517 25.374 9.19768 29.763 12.2524 32.7555C15.3168 35.7575 18.6763 37.3353 19.8227 37.8187C19.9417 37.8689 20.0585 37.8689 20.1775 37.8187C21.3239 37.3353 24.6833 35.7575 27.7478 32.7555C30.8025 29.763 33.5485 25.374 33.5485 19.2299V6.62504C33.5485 6.34409 33.3667 6.09544 33.0989 6.01025L20.1957 1.90468Z" fill="#9E2424"/>
<path d="M6.51002 4.78067C5.70684 5.03622 5.16138 5.78216 5.16138 6.62503V19.2299C5.16138 25.8042 8.11369 30.5074 11.3495 33.6773C14.5756 36.8376 18.0989 38.4922 19.3214 39.0076C19.7609 39.193 20.2392 39.193 20.6788 39.0076C21.9013 38.4922 25.4246 36.8376 28.6507 33.6773C31.8865 30.5074 34.8388 25.8042 34.8388 19.2299V6.62504C34.8388 5.78218 34.2933 5.03623 33.4902 4.78067L20.5869 0.675096C20.2051 0.553614 19.795 0.553614 19.4132 0.675096L6.51002 4.78067ZM6.51002 4.78067L6.70563 5.39546M19.8045 1.90468C19.9317 1.86418 20.0684 1.86418 20.1957 1.90468L33.0989 6.01025C33.3667 6.09544 33.5485 6.34409 33.5485 6.62504V19.2299C33.5485 25.374 30.8025 29.763 27.7478 32.7555C24.6833 35.7575 21.3239 37.3353 20.1775 37.8187C20.0585 37.8689 19.9417 37.8689 19.8227 37.8187C18.6763 37.3353 15.3168 35.7575 12.2524 32.7555C9.19768 29.763 6.4517 25.374 6.4517 19.2299V6.62503C6.4517 6.34408 6.63351 6.09544 6.90125 6.01025L19.8045 1.90468ZM20.6452 8.90734C20.6452 8.55103 20.3564 8.26218 20.0001 8.26218C19.6438 8.26218 19.3549 8.55103 19.3549 8.90734V9.44147C16.5085 9.72811 14.1936 11.8881 14.1936 14.6421C14.1936 17.3961 16.5085 19.5561 19.3549 19.8427V27.721C17.113 27.4442 15.484 25.7453 15.484 23.8177C15.484 23.4614 15.1951 23.1726 14.8388 23.1726C14.4825 23.1726 14.1936 23.4614 14.1936 23.8177C14.1936 26.5717 16.5085 28.7317 19.3549 29.0184V29.5525C19.3549 29.9088 19.6438 30.1977 20.0001 30.1977C20.3564 30.1977 20.6452 29.9088 20.6452 29.5525V29.0184C23.4916 28.7317 25.8065 26.5717 25.8065 23.8177C25.8065 21.0638 23.4916 18.9037 20.6452 18.6171V10.7388C22.8872 11.0156 24.5162 12.7145 24.5162 14.6421C24.5162 14.9984 24.8051 15.2873 25.1614 15.2873C25.5177 15.2873 25.8065 14.9984 25.8065 14.6421C25.8065 11.8881 23.4916 9.72811 20.6452 9.44147V8.90734ZM15.484 14.6421C15.484 12.7145 17.113 11.0156 19.3549 10.7388V18.5454C17.113 18.2686 15.484 16.5697 15.484 14.6421ZM20.6452 27.721V19.9145C22.8872 20.1913 24.5162 21.8901 24.5162 23.8177C24.5162 25.7453 22.8872 27.4442 20.6452 27.721Z" stroke="#9E2424"/>
</g>
</g>
</svg>
