<svg width="42" height="42" viewBox="0 0 42 42" fill="none" xmlns="http://www.w3.org/2000/svg">
<g id="Frame 190">
<g id="Union">
<path d="M21.6452 13.2581C21.6452 12.9018 21.3563 12.6129 21 12.6129C20.6437 12.6129 20.3548 12.9018 20.3548 13.2581V21H10.0323C9.67594 21 9.3871 21.2888 9.3871 21.6452C9.3871 22.0015 9.67594 22.2903 10.0323 22.2903H21C21.3563 22.2903 21.6452 22.0015 21.6452 21.6452V13.2581Z" fill="#9E2424"/>
<path d="M32.6129 28.7419C34.0382 28.7419 35.1935 27.5865 35.1935 26.1613C35.1935 24.736 34.0382 23.5806 32.6129 23.5806C31.1877 23.5806 30.0323 24.736 30.0323 26.1613C30.0323 27.5865 31.1877 28.7419 32.6129 28.7419Z" fill="#9E2424"/>
<path fill-rule="evenodd" clip-rule="evenodd" d="M40.3386 25.6557C40.3494 25.8228 40.3548 25.9914 40.3548 26.1613C40.3548 29.4791 35.6933 36.194 33.6046 39.0364C33.1074 39.7129 32.1184 39.7129 31.6212 39.0364C31.4538 38.8085 31.2698 38.5557 31.073 38.2818C28.1144 40.0099 24.672 41 21 41C9.9543 41 1 32.0457 1 21C1 9.9543 9.9543 1 21 1C32.0457 1 41 9.9543 41 21C41 22.5261 40.6386 24.3037 40.3386 25.6557ZM2.29032 21C2.29032 10.6669 10.6669 2.29032 21 2.29032C31.3331 2.29032 39.7097 10.6669 39.7097 21C39.7097 21.5542 39.6558 22.1549 39.5715 22.7639C38.3131 20.1912 35.6699 18.4194 32.6129 18.4194C28.3371 18.4194 24.871 21.8855 24.871 26.1613C24.871 28.8976 28.0417 33.9446 30.3248 37.2241C27.5801 38.8052 24.3965 39.7097 21 39.7097C10.6669 39.7097 2.29032 31.3331 2.29032 21ZM38.4007 28.6817C38.8512 27.5878 39.0645 26.7346 39.0645 26.1613C39.0645 22.5982 36.176 19.7097 32.6129 19.7097C29.0498 19.7097 26.1613 22.5982 26.1613 26.1613C26.1613 26.7346 26.3746 27.5878 26.8251 28.6817C27.2641 29.7477 27.8808 30.9312 28.5778 32.1276C29.9494 34.4823 31.5769 36.7942 32.6129 38.2068C33.6489 36.7942 35.2764 34.4823 36.6481 32.1276C37.345 30.9312 37.9617 29.7477 38.4007 28.6817Z" fill="#9E2424"/>
<path d="M21.6452 13.2581C21.6452 12.9018 21.3563 12.6129 21 12.6129C20.6437 12.6129 20.3548 12.9018 20.3548 13.2581V21H10.0323C9.67594 21 9.3871 21.2888 9.3871 21.6452C9.3871 22.0015 9.67594 22.2903 10.0323 22.2903H21C21.3563 22.2903 21.6452 22.0015 21.6452 21.6452V13.2581Z" stroke="#9E2424"/>
<path d="M32.6129 28.7419C34.0382 28.7419 35.1935 27.5865 35.1935 26.1613C35.1935 24.736 34.0382 23.5806 32.6129 23.5806C31.1877 23.5806 30.0323 24.736 30.0323 26.1613C30.0323 27.5865 31.1877 28.7419 32.6129 28.7419Z" stroke="#9E2424"/>
<path fill-rule="evenodd" clip-rule="evenodd" d="M40.3386 25.6557C40.3494 25.8228 40.3548 25.9914 40.3548 26.1613C40.3548 29.4791 35.6933 36.194 33.6046 39.0364C33.1074 39.7129 32.1184 39.7129 31.6212 39.0364C31.4538 38.8085 31.2698 38.5557 31.073 38.2818C28.1144 40.0099 24.672 41 21 41C9.9543 41 1 32.0457 1 21C1 9.9543 9.9543 1 21 1C32.0457 1 41 9.9543 41 21C41 22.5261 40.6386 24.3037 40.3386 25.6557ZM2.29032 21C2.29032 10.6669 10.6669 2.29032 21 2.29032C31.3331 2.29032 39.7097 10.6669 39.7097 21C39.7097 21.5542 39.6558 22.1549 39.5715 22.7639C38.3131 20.1912 35.6699 18.4194 32.6129 18.4194C28.3371 18.4194 24.871 21.8855 24.871 26.1613C24.871 28.8976 28.0417 33.9446 30.3248 37.2241C27.5801 38.8052 24.3965 39.7097 21 39.7097C10.6669 39.7097 2.29032 31.3331 2.29032 21ZM38.4007 28.6817C38.8512 27.5878 39.0645 26.7346 39.0645 26.1613C39.0645 22.5982 36.176 19.7097 32.6129 19.7097C29.0498 19.7097 26.1613 22.5982 26.1613 26.1613C26.1613 26.7346 26.3746 27.5878 26.8251 28.6817C27.2641 29.7477 27.8808 30.9312 28.5778 32.1276C29.9494 34.4823 31.5769 36.7942 32.6129 38.2068C33.6489 36.7942 35.2764 34.4823 36.6481 32.1276C37.345 30.9312 37.9617 29.7477 38.4007 28.6817Z" stroke="#9E2424"/>
</g>
</g>
</svg>
